<svg width="3351" height="600" viewBox="0 0 3351 600" fill="none" xmlns="http://www.w3.org/2000/svg">
<path d="M519.88 225.187C424.335 225.187 346.88 302.642 346.88 398.187C346.88 424.59 352.795 449.613 363.372 472H596V242.79C573.03 231.517 547.194 225.187 519.88 225.187Z" stroke="#222020" stroke-width="25"/>
<path d="M596 126V472H250" stroke="#222020" stroke-width="25" stroke-linecap="round"/>
<path d="M536.025 126V169.827" stroke="#222020" stroke-width="25" stroke-linecap="round"/>
<path d="M446.242 139.782L459.641 181.51" stroke="#222020" stroke-width="25" stroke-linecap="round"/>
<path d="M365.086 181.538L390.901 216.955" stroke="#222020" stroke-width="25" stroke-linecap="round"/>
<path d="M300.876 245.768L336.242 271.653" stroke="#222020" stroke-width="25" stroke-linecap="round"/>
<path d="M259.261 326.571L300.937 340.132" stroke="#222020" stroke-width="25" stroke-linecap="round"/>
<path d="M250 416.639H293.827" stroke="#222020" stroke-width="25" stroke-linecap="round"/>
<path d="M3067.69 133.95V440.05C3067.69 448.628 3069.31 455.143 3072.45 459.712C3075.85 463.959 3079.12 466.101 3082.22 466.473L3082.52 466.504L3082.57 466.508L3082.62 466.517L3087.48 467.4H3102.34V473H3087.39C3060.89 473 3043.71 466.081 3036.54 451.747C3035 448.66 3034.19 445.805 3034.19 443.2V133.95H3067.69Z" fill="#222020" stroke="#222020" stroke-width="2"/>
<path d="M2887.33 244.2C2919.33 244.2 2945.38 253.262 2965.4 271.46C2985.48 289.716 2995.43 317.785 2995.43 355.45C2995.43 393.134 2985.02 422.515 2964.09 443.451L2964.09 443.452C2943.49 464.362 2917.12 474.8 2885.08 474.8C2853.38 474.8 2827.47 465.736 2807.46 447.54C2787.38 429.284 2777.43 401.215 2777.43 363.55C2777.43 325.867 2787.68 296.485 2808.32 275.548L2808.32 275.543C2829.22 254.64 2855.59 244.2 2887.33 244.2ZM2888.23 249.8C2865.79 249.8 2847.17 259.816 2832.33 279.992L2832.33 279.998C2817.51 299.863 2810.03 327.823 2810.03 364C2810.03 399.904 2816.92 426.336 2830.51 443.479C2844.12 460.632 2862.13 469.2 2884.63 469.2C2907.08 469.2 2925.7 459.328 2940.53 439.452C2955.36 419.283 2962.83 391.321 2962.83 355.45C2962.83 319.244 2955.94 292.663 2942.35 275.521C2928.74 258.368 2910.73 249.8 2888.23 249.8Z" fill="#222020" stroke="#222020" stroke-width="2"/>
<path d="M2637.74 155.1C2667.55 155.1 2697.81 160.221 2728.5 170.452L2729.51 170.787L2729.12 171.771L2727.32 176.271L2726.95 177.188L2726.03 176.833C2698.82 166.369 2673.14 161.15 2648.99 161.15C2625.12 161.15 2606.61 166.224 2593.34 176.248C2580.11 186.245 2573.49 200.041 2573.49 217.75C2573.49 239.2 2584.61 255.842 2607.13 267.706C2617.3 272.787 2628.36 277.572 2640.33 282.06C2652.65 286.268 2664.97 291.076 2677.29 296.485C2689.64 301.907 2700.94 308.085 2711.2 315.022C2721.55 322.026 2729.91 331.758 2736.27 344.185L2736.86 345.338C2742.87 357.354 2745.84 372.593 2745.84 391C2745.84 409.802 2740.53 425.927 2729.87 439.323C2719.26 452.666 2706.34 461.788 2691.14 466.653L2691.13 466.657C2676.31 471.193 2658.96 473.45 2639.09 473.45C2602.02 473.45 2570.31 464.255 2544.01 445.819L2543.24 445.274L2543.74 444.47L2545.99 440.87L2546.58 439.924L2547.46 440.615C2557.24 448.321 2569.87 454.721 2585.38 459.794C2601.19 464.565 2617.29 466.95 2633.69 466.95C2657.83 466.95 2678.33 461.437 2695.24 450.461C2712.34 439.258 2720.89 422.933 2720.89 401.35C2720.89 377.746 2709.71 359.304 2687.18 345.961C2677.03 339.988 2665.82 334.458 2653.55 329.374L2653.55 329.371C2641.54 324.269 2629.39 319.017 2617.09 313.616L2617.08 313.612L2617.07 313.608C2604.72 307.888 2593.43 301.561 2583.18 294.628V294.627C2560.1 279.44 2548.54 257.827 2548.54 229.9C2548.54 207.751 2555.98 189.773 2570.91 176.064C2585.87 162.029 2608.2 155.1 2637.74 155.1Z" fill="#222020" stroke="#222020" stroke-width="2"/>
<path d="M2269.46 244.2C2301.46 244.2 2327.51 253.262 2347.53 271.46C2367.61 289.716 2377.56 317.785 2377.56 355.45C2377.56 393.134 2367.15 422.515 2346.22 443.451L2346.22 443.452C2325.61 464.362 2299.25 474.8 2267.21 474.8C2235.51 474.8 2209.6 465.736 2189.59 447.54C2169.5 429.284 2159.56 401.215 2159.56 363.55C2159.56 325.867 2169.81 296.485 2190.45 275.548L2190.45 275.543C2211.35 254.64 2237.72 244.2 2269.46 244.2ZM2270.36 249.8C2247.92 249.8 2229.3 259.816 2214.46 279.992L2214.46 279.998C2199.64 299.863 2192.16 327.823 2192.16 364C2192.16 399.904 2199.05 426.336 2212.64 443.479C2226.25 460.632 2244.25 469.2 2266.76 469.2C2289.21 469.2 2307.82 459.328 2322.66 439.452C2337.48 419.283 2344.96 391.321 2344.96 355.45C2344.96 319.244 2338.07 292.663 2324.47 275.521C2310.87 258.368 2292.86 249.8 2270.36 249.8Z" fill="#222020" stroke="#222020" stroke-width="2"/>
<path d="M1968.83 155.55C1981.8 155.55 1995.36 156.907 2009.51 159.617H2009.51C2024.01 162.336 2038.2 167.47 2052.08 175.009C2066.3 182.268 2078.26 191.804 2087.95 203.615C2097.95 215.143 2105.96 230.418 2111.98 249.397C2118.02 268.423 2121.03 291.482 2121.03 318.55C2121.03 345.659 2116.51 370.09 2107.45 391.827C2098.7 413.26 2086.6 429.771 2071.12 441.3L2071.13 441.301C2041.23 463.647 2005.16 474.8 1962.98 474.8C1948.26 474.8 1932.8 474.2 1916.59 473H1893.13V156.45H1930.1C1943.31 155.85 1956.22 155.55 1968.83 155.55ZM1960.28 162.05C1950.73 162.05 1941.46 162.471 1932.48 163.311V467.486C1938.59 468.027 1946.2 468.3 1955.33 468.3C1964.92 468.3 1972.1 468.15 1976.86 467.852C1981.57 467.557 1988.1 466.375 1996.47 464.282C2004.8 461.902 2012.52 458.781 2019.65 454.921C2026.75 451.075 2034.18 445.435 2041.93 437.979C2049.95 430.254 2056.79 421.188 2062.45 410.772C2075.24 386.365 2081.68 354.446 2081.68 314.95C2081.68 286.827 2078.24 262.641 2071.38 242.37L2071.38 242.366C2064.5 221.725 2056.6 206.574 2047.74 196.822L2047.73 196.816L2047.73 196.81C2039.12 187.022 2028.59 179.305 2016.12 173.661L2016.11 173.657L2016.1 173.652C2003.53 167.667 1993.59 164.273 1986.26 163.393C1978.81 162.499 1970.15 162.05 1960.28 162.05Z" fill="#222020" stroke="#222020" stroke-width="2"/>
<path d="M1603.25 244.2C1635.25 244.2 1661.3 253.262 1681.32 271.46C1701.4 289.716 1711.35 317.785 1711.35 355.45C1711.35 393.134 1700.94 422.515 1680.01 443.451L1680.01 443.452C1659.4 464.362 1633.04 474.8 1601 474.8C1569.3 474.8 1543.39 465.736 1523.38 447.54C1503.29 429.284 1493.35 401.215 1493.35 363.55C1493.35 325.867 1503.6 296.485 1524.24 275.548L1524.24 275.543C1545.14 254.64 1571.51 244.2 1603.25 244.2ZM1604.15 249.8C1581.7 249.8 1563.09 259.816 1548.25 279.992L1548.25 279.998C1533.42 299.863 1525.95 327.823 1525.95 364C1525.95 399.904 1532.83 426.336 1546.43 443.479C1560.04 460.632 1578.04 469.2 1600.55 469.2C1623 469.2 1641.61 459.328 1656.45 439.452C1671.27 419.283 1678.75 391.321 1678.75 355.45C1678.75 319.244 1671.86 292.663 1658.26 275.521C1644.66 258.368 1626.65 249.8 1604.15 249.8Z" fill="#222020" stroke="#222020" stroke-width="2"/>
<path d="M1406.17 201V246H1475.02V251.6H1406.17V414.4C1406.17 433.854 1408.27 447.752 1412.36 456.24L1412.56 456.624C1416.89 464.611 1425.53 468.75 1438.92 468.75C1452.88 468.75 1467 465.929 1481.3 460.271L1482.25 459.896L1482.6 460.849L1483.95 464.449L1484.3 465.381L1483.37 465.734C1468.24 471.486 1450.86 474.35 1431.27 474.35C1411.96 474.35 1397.29 470.432 1387.44 462.426L1387.43 462.42L1387.42 462.414C1377.46 454.011 1372.67 437.705 1372.67 413.95V251.6H1363.22V246H1372.67V201H1406.17Z" fill="#222020" stroke="#222020" stroke-width="2"/>
<path d="M1311.4 244.2L1311.98 244.207C1317.97 244.34 1322.99 246.535 1326.96 250.793C1331.35 254.888 1333.55 260.1 1333.55 266.351C1333.55 272.614 1331.34 277.834 1326.93 281.933C1322.83 286.02 1317.62 288.05 1311.4 288.05C1305.16 288.05 1299.95 286.012 1295.84 281.907C1291.74 277.802 1289.7 272.59 1289.7 266.351V258.398C1276.97 263.884 1265.27 274.482 1254.63 290.309L1254.62 290.315C1243.6 306.408 1237.84 321.522 1237.25 335.673V473H1203.75V246H1237.25V311.923C1242.44 296.729 1251.01 282.369 1262.94 268.846C1276.58 253.082 1292.13 244.813 1309.56 244.201L1309.58 244.2H1311.4Z" fill="#222020" stroke="#222020" stroke-width="2"/>
<path d="M1070.63 244.2C1102.63 244.2 1128.69 253.262 1148.7 271.46C1168.78 289.716 1178.73 317.785 1178.73 355.45C1178.73 393.134 1168.32 422.515 1147.39 443.451L1147.39 443.452C1126.79 464.362 1100.42 474.8 1068.38 474.8C1036.68 474.8 1010.77 465.736 990.758 447.54C970.676 429.284 960.73 401.215 960.73 363.55C960.731 325.867 970.985 296.485 991.618 275.548L991.623 275.543C1012.53 254.64 1038.89 244.2 1070.63 244.2ZM1071.53 249.8C1049.09 249.8 1030.47 259.816 1015.64 279.992L1015.63 279.998C1000.81 299.863 993.33 327.823 993.33 364C993.33 399.904 1000.22 426.336 1013.81 443.479C1027.42 460.632 1045.43 469.2 1067.93 469.2C1090.38 469.2 1109 459.328 1123.83 439.452C1138.66 419.283 1146.13 391.321 1146.13 355.45C1146.13 319.244 1139.24 292.663 1125.65 275.521C1112.04 258.368 1094.03 249.8 1071.53 249.8Z" fill="#222020" stroke="#222020" stroke-width="2"/>
<path d="M818.3 156C855.587 156 883.731 162.572 902.576 175.87C921.485 189.213 930.9 209.232 930.9 235.75C930.9 260.227 924.551 281.724 911.831 300.204L911.832 300.205C905.1 310.302 894.729 318.361 880.799 324.417L880.79 324.421L880.782 324.424C866.83 330.187 850.043 333.05 830.45 333.05H764.85V473H725.5V159.667L726.432 159.603C761.247 157.201 791.871 156 818.3 156ZM818.75 162.5C801.659 162.5 783.693 163.518 764.85 165.55V326.55H830.428C851.308 325.657 866.852 317.752 877.218 302.902C887.625 287.993 892.9 265.957 892.9 236.65C892.9 212.823 886.648 194.657 874.284 181.999L874.276 181.99C861.926 169.052 843.479 162.5 818.75 162.5Z" fill="#222020" stroke="#222020" stroke-width="2"/>
</svg>
