<svg width="1264" height="534" viewBox="0 0 1264 534" fill="none" xmlns="http://www.w3.org/2000/svg">
<mask id="path-2-outside-1_557_36" maskUnits="userSpaceOnUse" x="504" y="77" width="494" height="158" fill="black">
<rect fill="white" x="504" y="77" width="494" height="158"/>
<path d="M507.05 82.22C523.677 81.0733 538.297 80.5 550.91 80.5C586.457 80.5 604.23 93.0417 604.23 118.125C604.23 129.735 601.22 139.912 595.2 148.655C592.047 153.385 587.173 157.183 580.58 160.05C573.987 162.773 566.032 164.135 556.715 164.135H524.895V231H507.05V82.22ZM551.125 82.65C542.812 82.65 534.068 83.1517 524.895 84.155V161.985H556.715C576.925 161.125 587.03 146.648 587.03 118.555C587.03 107.088 584.02 98.2733 578 92.11C571.98 85.8033 563.022 82.65 551.125 82.65ZM674.693 231.86C659.643 231.86 647.388 227.56 637.928 218.96C628.468 210.36 623.738 197.102 623.738 179.185C623.738 161.268 628.611 147.365 638.358 137.475C648.248 127.585 660.718 122.64 675.768 122.64C690.961 122.64 703.288 126.94 712.748 135.54C722.208 144.14 726.938 157.398 726.938 175.315C726.938 193.232 721.993 207.135 712.103 217.025C702.356 226.915 689.886 231.86 674.693 231.86ZM676.198 124.36C665.305 124.36 656.275 129.233 649.108 138.98C641.941 148.583 638.358 162.057 638.358 179.4C638.358 196.6 641.655 209.357 648.248 217.67C654.841 225.983 663.585 230.14 674.478 230.14C685.371 230.14 694.401 225.338 701.568 215.735C708.735 205.988 712.318 192.515 712.318 175.315C712.318 157.972 709.021 145.143 702.428 136.83C695.835 128.517 687.091 124.36 676.198 124.36ZM785.211 132.745V128.23C778.761 130.81 772.885 136.042 767.581 143.925C762.278 151.665 759.483 158.975 759.196 165.855V231H744.146V123.5H759.196V157.685C761.49 149.372 765.861 141.56 772.311 134.25C778.761 126.797 786.071 122.927 794.241 122.64H795.101C797.968 122.64 800.333 123.643 802.196 125.65C804.203 127.513 805.206 129.878 805.206 132.745C805.206 135.612 804.203 137.977 802.196 139.84C800.333 141.703 797.968 142.635 795.101 142.635C792.235 142.635 789.87 141.703 788.006 139.84C786.143 137.977 785.211 135.612 785.211 132.745ZM824.637 125.22V123.5H829.152V102H844.202V123.5H877.097V125.22H844.202V203.48C844.202 212.797 845.205 219.533 847.212 223.69C849.362 227.847 853.734 229.925 860.327 229.925C867.064 229.925 873.872 228.563 880.752 225.84L881.397 227.56C874.23 230.283 865.989 231.645 856.672 231.645C847.499 231.645 840.619 229.782 836.032 226.055C831.445 222.185 829.152 214.588 829.152 203.265V125.22H824.637ZM942.066 231.86C927.016 231.86 914.761 227.56 905.301 218.96C895.841 210.36 891.111 197.102 891.111 179.185C891.111 161.268 895.984 147.365 905.731 137.475C915.621 127.585 928.091 122.64 943.141 122.64C958.334 122.64 970.661 126.94 980.121 135.54C989.581 144.14 994.311 157.398 994.311 175.315C994.311 193.232 989.366 207.135 979.476 217.025C969.729 226.915 957.259 231.86 942.066 231.86ZM943.571 124.36C932.677 124.36 923.647 129.233 916.481 138.98C909.314 148.583 905.731 162.057 905.731 179.4C905.731 196.6 909.027 209.357 915.621 217.67C922.214 225.983 930.957 230.14 941.851 230.14C952.744 230.14 961.774 225.338 968.941 215.735C976.107 205.988 979.691 192.515 979.691 175.315C979.691 157.972 976.394 145.143 969.801 136.83C963.207 128.517 954.464 124.36 943.571 124.36Z"/>
</mask>
<path d="M507.05 82.22C523.677 81.0733 538.297 80.5 550.91 80.5C586.457 80.5 604.23 93.0417 604.23 118.125C604.23 129.735 601.22 139.912 595.2 148.655C592.047 153.385 587.173 157.183 580.58 160.05C573.987 162.773 566.032 164.135 556.715 164.135H524.895V231H507.05V82.22ZM551.125 82.65C542.812 82.65 534.068 83.1517 524.895 84.155V161.985H556.715C576.925 161.125 587.03 146.648 587.03 118.555C587.03 107.088 584.02 98.2733 578 92.11C571.98 85.8033 563.022 82.65 551.125 82.65ZM674.693 231.86C659.643 231.86 647.388 227.56 637.928 218.96C628.468 210.36 623.738 197.102 623.738 179.185C623.738 161.268 628.611 147.365 638.358 137.475C648.248 127.585 660.718 122.64 675.768 122.64C690.961 122.64 703.288 126.94 712.748 135.54C722.208 144.14 726.938 157.398 726.938 175.315C726.938 193.232 721.993 207.135 712.103 217.025C702.356 226.915 689.886 231.86 674.693 231.86ZM676.198 124.36C665.305 124.36 656.275 129.233 649.108 138.98C641.941 148.583 638.358 162.057 638.358 179.4C638.358 196.6 641.655 209.357 648.248 217.67C654.841 225.983 663.585 230.14 674.478 230.14C685.371 230.14 694.401 225.338 701.568 215.735C708.735 205.988 712.318 192.515 712.318 175.315C712.318 157.972 709.021 145.143 702.428 136.83C695.835 128.517 687.091 124.36 676.198 124.36ZM785.211 132.745V128.23C778.761 130.81 772.885 136.042 767.581 143.925C762.278 151.665 759.483 158.975 759.196 165.855V231H744.146V123.5H759.196V157.685C761.49 149.372 765.861 141.56 772.311 134.25C778.761 126.797 786.071 122.927 794.241 122.64H795.101C797.968 122.64 800.333 123.643 802.196 125.65C804.203 127.513 805.206 129.878 805.206 132.745C805.206 135.612 804.203 137.977 802.196 139.84C800.333 141.703 797.968 142.635 795.101 142.635C792.235 142.635 789.87 141.703 788.006 139.84C786.143 137.977 785.211 135.612 785.211 132.745ZM824.637 125.22V123.5H829.152V102H844.202V123.5H877.097V125.22H844.202V203.48C844.202 212.797 845.205 219.533 847.212 223.69C849.362 227.847 853.734 229.925 860.327 229.925C867.064 229.925 873.872 228.563 880.752 225.84L881.397 227.56C874.23 230.283 865.989 231.645 856.672 231.645C847.499 231.645 840.619 229.782 836.032 226.055C831.445 222.185 829.152 214.588 829.152 203.265V125.22H824.637ZM942.066 231.86C927.016 231.86 914.761 227.56 905.301 218.96C895.841 210.36 891.111 197.102 891.111 179.185C891.111 161.268 895.984 147.365 905.731 137.475C915.621 127.585 928.091 122.64 943.141 122.64C958.334 122.64 970.661 126.94 980.121 135.54C989.581 144.14 994.311 157.398 994.311 175.315C994.311 193.232 989.366 207.135 979.476 217.025C969.729 226.915 957.259 231.86 942.066 231.86ZM943.571 124.36C932.677 124.36 923.647 129.233 916.481 138.98C909.314 148.583 905.731 162.057 905.731 179.4C905.731 196.6 909.027 209.357 915.621 217.67C922.214 225.983 930.957 230.14 941.851 230.14C952.744 230.14 961.774 225.338 968.941 215.735C976.107 205.988 979.691 192.515 979.691 175.315C979.691 157.972 976.394 145.143 969.801 136.83C963.207 128.517 954.464 124.36 943.571 124.36Z" fill="#222020"/>
<path d="M507.05 82.22L506.844 79.2271L504.05 79.4198V82.22H507.05ZM595.2 148.655L592.729 146.954L592.716 146.972L592.704 146.991L595.2 148.655ZM580.58 160.05L581.725 162.823L581.751 162.812L581.776 162.801L580.58 160.05ZM524.895 164.135V161.135H521.895V164.135H524.895ZM524.895 231V234H527.895V231H524.895ZM507.05 231H504.05V234H507.05V231ZM524.895 84.155L524.569 81.1728L521.895 81.4652V84.155H524.895ZM524.895 161.985H521.895V164.985H524.895V161.985ZM556.715 161.985V164.985H556.779L556.843 164.982L556.715 161.985ZM578 92.11L575.83 94.1814L575.842 94.1939L575.854 94.2062L578 92.11ZM507.05 82.22L507.256 85.2129C523.835 84.0695 538.383 83.5 550.91 83.5V80.5V77.5C538.21 77.5 523.519 78.0771 506.844 79.2271L507.05 82.22ZM550.91 80.5V83.5C568.422 83.5 581.02 86.6058 589.17 92.3574C597.13 97.9739 601.23 106.386 601.23 118.125H604.23H607.23C607.23 104.78 602.444 94.3803 592.63 87.4551C583.007 80.665 568.945 77.5 550.91 77.5V80.5ZM604.23 118.125H601.23C601.23 129.187 598.372 138.758 592.729 146.954L595.2 148.655L597.671 150.356C604.068 141.066 607.23 130.283 607.23 118.125H604.23ZM595.2 148.655L592.704 146.991C589.945 151.129 585.588 154.602 579.384 157.299L580.58 160.05L581.776 162.801C588.759 159.765 594.148 155.641 597.696 150.319L595.2 148.655ZM580.58 160.05L579.435 157.277C573.297 159.812 565.753 161.135 556.715 161.135V164.135V167.135C566.31 167.135 574.676 165.734 581.725 162.823L580.58 160.05ZM556.715 164.135V161.135H524.895V164.135V167.135H556.715V164.135ZM524.895 164.135H521.895V231H524.895H527.895V164.135H524.895ZM524.895 231V228H507.05V231V234H524.895V231ZM507.05 231H510.05V82.22H507.05H504.05V231H507.05ZM551.125 82.65V79.65C542.692 79.65 533.839 80.1589 524.569 81.1728L524.895 84.155L525.221 87.1372C534.298 86.1445 542.932 85.65 551.125 85.65V82.65ZM524.895 84.155H521.895V161.985H524.895H527.895V84.155H524.895ZM524.895 161.985V164.985H556.715V161.985V158.985H524.895V161.985ZM556.715 161.985L556.843 164.982C567.727 164.519 576.24 160.324 581.911 152.2C587.467 144.24 590.03 132.881 590.03 118.555H587.03H584.03C584.03 132.322 581.54 142.249 576.991 148.765C572.557 155.118 565.913 158.591 556.587 158.988L556.715 161.985ZM587.03 118.555H590.03C590.03 106.572 586.875 96.9033 580.146 90.0138L578 92.11L575.854 94.2062C581.165 99.6434 584.03 107.605 584.03 118.555H587.03ZM578 92.11L580.17 90.0386C573.401 82.9476 563.533 79.65 551.125 79.65V82.65V85.65C562.51 85.65 570.559 88.659 575.83 94.1814L578 92.11ZM637.928 218.96L639.946 216.74V216.74L637.928 218.96ZM638.358 137.475L636.237 135.354L636.229 135.361L636.221 135.369L638.358 137.475ZM712.748 135.54L714.766 133.32V133.32L712.748 135.54ZM712.103 217.025L709.982 214.904L709.974 214.911L709.966 214.919L712.103 217.025ZM649.108 138.98L651.512 140.774L651.519 140.766L651.525 140.757L649.108 138.98ZM648.248 217.67L650.598 215.806V215.806L648.248 217.67ZM701.568 215.735L703.972 217.529L703.979 217.521L703.985 217.512L701.568 215.735ZM674.693 231.86V228.86C660.249 228.86 648.758 224.751 639.946 216.74L637.928 218.96L635.91 221.18C646.018 230.369 659.037 234.86 674.693 234.86V231.86ZM637.928 218.96L639.946 216.74C631.33 208.908 626.738 196.606 626.738 179.185H623.738H620.738C620.738 197.597 625.606 211.812 635.91 221.18L637.928 218.96ZM623.738 179.185H626.738C626.738 161.818 631.449 148.76 640.495 139.581L638.358 137.475L636.221 135.369C625.774 145.97 620.738 160.719 620.738 179.185H623.738ZM638.358 137.475L640.479 139.596C649.761 130.315 661.447 125.64 675.768 125.64V122.64V119.64C659.989 119.64 646.735 124.855 636.237 135.354L638.358 137.475ZM675.768 122.64V125.64C690.364 125.64 701.923 129.754 710.73 137.76L712.748 135.54L714.766 133.32C704.653 124.126 691.559 119.64 675.768 119.64V122.64ZM712.748 135.54L710.73 137.76C719.346 145.592 723.938 157.894 723.938 175.315H726.938H729.938C729.938 156.903 725.07 142.688 714.766 133.32L712.748 135.54ZM726.938 175.315H723.938C723.938 192.67 719.163 205.723 709.982 214.904L712.103 217.025L714.224 219.146C724.823 208.547 729.938 193.793 729.938 175.315H726.938ZM712.103 217.025L709.966 214.919C700.839 224.18 689.166 228.86 674.693 228.86V231.86V234.86C690.606 234.86 703.873 229.65 714.24 219.131L712.103 217.025ZM676.198 124.36V121.36C664.235 121.36 654.351 126.786 646.691 137.203L649.108 138.98L651.525 140.757C658.198 131.681 666.375 127.36 676.198 127.36V124.36ZM649.108 138.98L646.704 137.186C639.011 147.493 635.358 161.689 635.358 179.4H638.358H641.358C641.358 162.425 644.871 149.673 651.512 140.774L649.108 138.98ZM638.358 179.4H635.358C635.358 196.887 638.693 210.45 645.897 219.534L648.248 217.67L650.598 215.806C644.617 208.264 641.358 196.313 641.358 179.4H638.358ZM648.248 217.67L645.897 219.534C653.077 228.587 662.697 233.14 674.478 233.14V230.14V227.14C664.472 227.14 656.605 223.38 650.598 215.806L648.248 217.67ZM674.478 230.14V233.14C686.422 233.14 696.305 227.804 703.972 217.529L701.568 215.735L699.164 213.941C692.498 222.873 684.32 227.14 674.478 227.14V230.14ZM701.568 215.735L703.985 217.512C711.66 207.074 715.318 192.893 715.318 175.315H712.318H709.318C709.318 192.137 705.809 204.903 699.151 213.958L701.568 215.735ZM712.318 175.315H715.318C715.318 157.692 711.986 144.054 704.778 134.966L702.428 136.83L700.077 138.694C706.056 146.233 709.318 158.252 709.318 175.315H712.318ZM702.428 136.83L704.778 134.966C697.599 125.913 687.979 121.36 676.198 121.36V124.36V127.36C686.204 127.36 694.071 131.12 700.077 138.694L702.428 136.83ZM785.211 128.23H788.211V123.799L784.097 125.445L785.211 128.23ZM767.581 143.925L770.056 145.621L770.063 145.61L770.07 145.6L767.581 143.925ZM759.196 165.855L756.199 165.73L756.196 165.793V165.855H759.196ZM759.196 231V234H762.196V231H759.196ZM744.146 231H741.146V234H744.146V231ZM744.146 123.5V120.5H741.146V123.5H744.146ZM759.196 123.5H762.196V120.5H759.196V123.5ZM759.196 157.685H756.196L762.088 158.483L759.196 157.685ZM772.311 134.25L774.561 136.235L774.57 136.224L774.58 136.213L772.311 134.25ZM794.241 122.64V119.64H794.189L794.136 119.642L794.241 122.64ZM802.196 125.65L799.998 127.691L800.074 127.773L800.155 127.848L802.196 125.65ZM802.196 139.84L800.155 137.642L800.114 137.679L800.075 137.719L802.196 139.84ZM788.006 139.84L790.128 137.719V137.719L788.006 139.84ZM785.211 132.745H788.211V128.23H785.211H782.211V132.745H785.211ZM785.211 128.23L784.097 125.445C776.916 128.317 770.611 134.046 765.092 142.25L767.581 143.925L770.07 145.6C775.158 138.037 780.606 133.303 786.325 131.015L785.211 128.23ZM767.581 143.925L765.107 142.229C759.597 150.271 756.516 158.119 756.199 165.73L759.196 165.855L762.194 165.98C762.45 159.831 764.959 153.059 770.056 145.621L767.581 143.925ZM759.196 165.855H756.196V231H759.196H762.196V165.855H759.196ZM759.196 231V228H744.146V231V234H759.196V231ZM744.146 231H747.146V123.5H744.146H741.146V231H744.146ZM744.146 123.5V126.5H759.196V123.5V120.5H744.146V123.5ZM759.196 123.5H756.196V157.685H759.196H762.196V123.5H759.196ZM759.196 157.685L762.088 158.483C764.245 150.663 768.373 143.248 774.561 136.235L772.311 134.25L770.062 132.265C763.35 139.872 758.734 148.08 756.304 156.887L759.196 157.685ZM772.311 134.25L774.58 136.213C780.605 129.25 787.179 125.89 794.346 125.638L794.241 122.64L794.136 119.642C784.964 119.964 776.917 124.343 770.043 132.287L772.311 134.25ZM794.241 122.64V125.64H795.101V122.64V119.64H794.241V122.64ZM795.101 122.64V125.64C797.178 125.64 798.732 126.328 799.998 127.691L802.196 125.65L804.395 123.609C801.934 120.959 798.758 119.64 795.101 119.64V122.64ZM802.196 125.65L800.155 127.848C801.519 129.115 802.206 130.668 802.206 132.745H805.206H808.206C808.206 129.088 806.887 125.912 804.238 123.452L802.196 125.65ZM805.206 132.745H802.206C802.206 134.822 801.519 136.375 800.155 137.642L802.196 139.84L804.238 142.038C806.887 139.578 808.206 136.402 808.206 132.745H805.206ZM802.196 139.84L800.075 137.719C798.826 138.967 797.249 139.635 795.101 139.635V142.635V145.635C798.687 145.635 801.839 144.439 804.318 141.961L802.196 139.84ZM795.101 142.635V139.635C792.953 139.635 791.376 138.967 790.128 137.719L788.006 139.84L785.885 141.961C788.363 144.439 791.516 145.635 795.101 145.635V142.635ZM788.006 139.84L790.128 137.719C788.879 136.47 788.211 134.893 788.211 132.745H785.211H782.211C782.211 136.33 783.407 139.483 785.885 141.961L788.006 139.84ZM824.637 125.22H821.637V128.22H824.637V125.22ZM824.637 123.5V120.5H821.637V123.5H824.637ZM829.152 123.5V126.5H832.152V123.5H829.152ZM829.152 102V99H826.152V102H829.152ZM844.202 102H847.202V99H844.202V102ZM844.202 123.5H841.202V126.5H844.202V123.5ZM877.097 123.5H880.097V120.5H877.097V123.5ZM877.097 125.22V128.22H880.097V125.22H877.097ZM844.202 125.22V122.22H841.202V125.22H844.202ZM847.212 223.69L844.51 224.994L844.528 225.032L844.547 225.068L847.212 223.69ZM880.752 225.84L883.561 224.787L882.488 221.926L879.648 223.051L880.752 225.84ZM881.397 227.56L882.463 230.364L885.255 229.303L884.206 226.507L881.397 227.56ZM836.032 226.055L834.097 228.348L834.119 228.366L834.14 228.383L836.032 226.055ZM829.152 125.22H832.152V122.22H829.152V125.22ZM824.637 125.22H827.637V123.5H824.637H821.637V125.22H824.637ZM824.637 123.5V126.5H829.152V123.5V120.5H824.637V123.5ZM829.152 123.5H832.152V102H829.152H826.152V123.5H829.152ZM829.152 102V105H844.202V102V99H829.152V102ZM844.202 102H841.202V123.5H844.202H847.202V102H844.202ZM844.202 123.5V126.5H877.097V123.5V120.5H844.202V123.5ZM877.097 123.5H874.097V125.22H877.097H880.097V123.5H877.097ZM877.097 125.22V122.22H844.202V125.22V128.22H877.097V125.22ZM844.202 125.22H841.202V203.48H844.202H847.202V125.22H844.202ZM844.202 203.48H841.202C841.202 212.879 842.193 220.194 844.51 224.994L847.212 223.69L849.914 222.386C848.217 218.872 847.202 212.714 847.202 203.48H844.202ZM847.212 223.69L844.547 225.068C847.415 230.612 853.134 232.925 860.327 232.925V229.925V226.925C854.333 226.925 851.309 225.081 849.877 222.312L847.212 223.69ZM860.327 229.925V232.925C867.477 232.925 874.659 231.478 881.856 228.629L880.752 225.84L879.648 223.051C873.085 225.648 866.65 226.925 860.327 226.925V229.925ZM880.752 225.84L877.943 226.893L878.588 228.613L881.397 227.56L884.206 226.507L883.561 224.787L880.752 225.84ZM881.397 227.56L880.331 224.756C873.569 227.325 865.7 228.645 856.672 228.645V231.645V234.645C866.277 234.645 874.891 233.242 882.463 230.364L881.397 227.56ZM856.672 231.645V228.645C847.827 228.645 841.751 226.836 837.924 223.727L836.032 226.055L834.14 228.383C839.487 232.727 847.17 234.645 856.672 234.645V231.645ZM836.032 226.055L837.967 223.762C834.459 220.803 832.152 214.423 832.152 203.265H829.152H826.152C826.152 214.754 828.431 223.567 834.097 228.348L836.032 226.055ZM829.152 203.265H832.152V125.22H829.152H826.152V203.265H829.152ZM829.152 125.22V122.22H824.637V125.22V128.22H829.152V125.22ZM905.301 218.96L907.319 216.74V216.74L905.301 218.96ZM905.731 137.475L903.609 135.354L903.602 135.361L903.594 135.369L905.731 137.475ZM980.121 135.54L982.139 133.32V133.32L980.121 135.54ZM979.476 217.025L977.354 214.904L977.346 214.911L977.339 214.919L979.476 217.025ZM916.481 138.98L918.885 140.774L918.891 140.766L918.898 140.757L916.481 138.98ZM915.621 217.67L917.971 215.806V215.806L915.621 217.67ZM968.941 215.735L971.345 217.529L971.351 217.521L971.358 217.512L968.941 215.735ZM942.066 231.86V228.86C927.622 228.86 916.131 224.751 907.319 216.74L905.301 218.96L903.283 221.18C913.39 230.369 926.41 234.86 942.066 234.86V231.86ZM905.301 218.96L907.319 216.74C898.703 208.908 894.111 196.606 894.111 179.185H891.111H888.111C888.111 197.597 892.978 211.812 903.283 221.18L905.301 218.96ZM891.111 179.185H894.111C894.111 161.818 898.821 148.76 907.867 139.581L905.731 137.475L903.594 135.369C893.146 145.97 888.111 160.719 888.111 179.185H891.111ZM905.731 137.475L907.852 139.596C917.134 130.315 928.819 125.64 943.141 125.64V122.64V119.64C927.362 119.64 914.107 124.855 903.609 135.354L905.731 137.475ZM943.141 122.64V125.64C957.736 125.64 969.296 129.754 978.103 137.76L980.121 135.54L982.139 133.32C972.025 124.126 958.931 119.64 943.141 119.64V122.64ZM980.121 135.54L978.103 137.76C986.718 145.592 991.311 157.894 991.311 175.315H994.311H997.311C997.311 156.903 992.443 142.688 982.139 133.32L980.121 135.54ZM994.311 175.315H991.311C991.311 192.67 986.535 205.723 977.354 214.904L979.476 217.025L981.597 219.146C992.196 208.547 997.311 193.793 997.311 175.315H994.311ZM979.476 217.025L977.339 214.919C968.212 224.18 956.539 228.86 942.066 228.86V231.86V234.86C957.979 234.86 971.246 229.65 981.612 219.131L979.476 217.025ZM943.571 124.36V121.36C931.607 121.36 921.723 126.786 914.064 137.203L916.481 138.98L918.898 140.757C925.571 131.681 933.747 127.36 943.571 127.36V124.36ZM916.481 138.98L914.076 137.186C906.384 147.493 902.731 161.689 902.731 179.4H905.731H908.731C908.731 162.425 912.244 149.673 918.885 140.774L916.481 138.98ZM905.731 179.4H902.731C902.731 196.887 906.065 210.45 913.27 219.534L915.621 217.67L917.971 215.806C911.989 208.264 908.731 196.313 908.731 179.4H905.731ZM915.621 217.67L913.27 219.534C920.45 228.587 930.07 233.14 941.851 233.14V230.14V227.14C931.845 227.14 923.978 223.38 917.971 215.806L915.621 217.67ZM941.851 230.14V233.14C953.795 233.14 963.677 227.804 971.345 217.529L968.941 215.735L966.536 213.941C959.87 222.873 951.693 227.14 941.851 227.14V230.14ZM968.941 215.735L971.358 217.512C979.033 207.074 982.691 192.893 982.691 175.315H979.691H976.691C976.691 192.137 973.182 204.903 966.524 213.958L968.941 215.735ZM979.691 175.315H982.691C982.691 157.692 979.359 144.054 972.151 134.966L969.801 136.83L967.45 138.694C973.429 146.233 976.691 158.252 976.691 175.315H979.691ZM969.801 136.83L972.151 134.966C964.971 125.913 955.351 121.36 943.571 121.36V124.36V127.36C953.577 127.36 961.443 131.12 967.45 138.694L969.801 136.83Z" fill="#222020" mask="url(#path-2-outside-1_557_36)"/>
<mask id="path-4-outside-2_557_36" maskUnits="userSpaceOnUse" x="506" y="247" width="703" height="195" fill="black">
<rect fill="white" x="506" y="247" width="703" height="195"/>
<path d="M529.5 263.25C536.833 262.917 544 262.75 551 262.75C558.167 262.75 565.667 263.5 573.5 265C581.5 266.5 589.333 269.333 597 273.5C604.833 277.5 611.417 282.75 616.75 289.25C622.25 295.583 626.667 304 630 314.5C633.333 325 635 337.75 635 352.75C635 367.75 632.5 381.25 627.5 393.25C622.667 405.083 616 414.167 607.5 420.5C591 432.833 571.083 439 547.75 439C539.583 439 531 438.667 522 438H509.5V263.25H529.5ZM530.25 436C533.75 436.333 538.167 436.5 543.5 436.5C548.833 436.5 552.833 436.417 555.5 436.25C558.167 436.083 561.833 435.417 566.5 434.25C571.167 432.917 575.5 431.167 579.5 429C583.5 426.833 587.667 423.667 592 419.5C596.5 415.167 600.333 410.083 603.5 404.25C610.667 390.583 614.25 372.75 614.25 350.75C614.25 335.083 612.333 321.583 608.5 310.25C604.667 298.75 600.25 290.25 595.25 284.75C590.417 279.25 584.5 274.917 577.5 271.75C570.5 268.417 564.917 266.5 560.75 266C556.583 265.5 551.75 265.25 546.25 265.25C540.75 265.25 535.417 265.5 530.25 266V436ZM721.768 439C704.268 439 690.018 434 679.018 424C668.018 414 662.518 398.583 662.518 377.75C662.518 356.917 668.184 340.75 679.518 329.25C691.018 317.75 705.518 312 723.018 312C740.684 312 755.018 317 766.018 327C777.018 337 782.518 352.417 782.518 373.25C782.518 394.083 776.768 410.25 765.268 421.75C753.934 433.25 739.434 439 721.768 439ZM723.518 314C710.851 314 700.351 319.667 692.018 331C683.684 342.167 679.518 357.833 679.518 378C679.518 398 683.351 412.833 691.018 422.5C698.684 432.167 708.851 437 721.518 437C734.184 437 744.684 431.417 753.018 420.25C761.351 408.917 765.518 393.25 765.518 373.25C765.518 353.083 761.684 338.167 754.018 328.5C746.351 318.833 736.184 314 723.518 314ZM986.867 273.5C971.701 267.667 957.367 264.75 943.867 264.75C930.534 264.75 920.117 267.583 912.617 273.25C905.117 278.917 901.367 286.75 901.367 296.75C901.367 308.917 907.701 318.333 920.367 325C926.034 327.833 932.201 330.5 938.867 333C945.701 335.333 952.534 338 959.367 341C966.201 344 972.451 347.417 978.117 351.25C983.784 355.083 988.367 360.417 991.867 367.25C995.367 373.917 997.117 382.5 997.117 393C997.117 403.333 994.201 412.167 988.367 419.5C982.534 426.833 975.451 431.833 967.117 434.5C958.951 437 949.367 438.25 938.367 438.25C917.867 438.25 900.367 433.167 885.867 423L887.117 421C892.617 425.333 899.701 428.917 908.367 431.75C917.201 434.417 926.201 435.75 935.367 435.75C948.867 435.75 960.367 432.667 969.867 426.5C979.534 420.167 984.367 410.917 984.367 398.75C984.367 385.417 978.034 375 965.367 367.5C959.701 364.167 953.451 361.083 946.617 358.25C939.951 355.417 933.201 352.5 926.367 349.5C919.534 346.333 913.284 342.833 907.617 339C894.951 330.667 888.617 318.833 888.617 303.5C888.617 291.333 892.701 281.5 900.867 274C909.034 266.333 921.284 262.5 937.617 262.5C954.117 262.5 970.867 265.333 987.867 271L986.867 273.5ZM1080.03 439C1062.53 439 1048.28 434 1037.28 424C1026.28 414 1020.78 398.583 1020.78 377.75C1020.78 356.917 1026.45 340.75 1037.78 329.25C1049.28 317.75 1063.78 312 1081.28 312C1098.95 312 1113.28 317 1124.28 327C1135.28 337 1140.78 352.417 1140.78 373.25C1140.78 394.083 1135.03 410.25 1123.53 421.75C1112.2 433.25 1097.7 439 1080.03 439ZM1081.78 314C1069.11 314 1058.61 319.667 1050.28 331C1041.95 342.167 1037.78 357.833 1037.78 378C1037.78 398 1041.61 412.833 1049.28 422.5C1056.95 432.167 1067.11 437 1079.78 437C1092.45 437 1102.95 431.417 1111.28 420.25C1119.61 408.917 1123.78 393.25 1123.78 373.25C1123.78 353.083 1119.95 338.167 1112.28 328.5C1104.61 318.833 1094.45 314 1081.78 314ZM1197.42 438C1182.76 438 1173.51 434.167 1169.67 426.5C1168.84 424.833 1168.42 423.333 1168.42 422V250.75H1185.92V420.25C1185.92 425.083 1186.84 428.833 1188.67 431.5C1190.67 434 1192.67 435.333 1194.67 435.5L1197.42 436H1205.17V438H1197.42Z"/>
</mask>
<path d="M529.5 263.25C536.833 262.917 544 262.75 551 262.75C558.167 262.75 565.667 263.5 573.5 265C581.5 266.5 589.333 269.333 597 273.5C604.833 277.5 611.417 282.75 616.75 289.25C622.25 295.583 626.667 304 630 314.5C633.333 325 635 337.75 635 352.75C635 367.75 632.5 381.25 627.5 393.25C622.667 405.083 616 414.167 607.5 420.5C591 432.833 571.083 439 547.75 439C539.583 439 531 438.667 522 438H509.5V263.25H529.5ZM530.25 436C533.75 436.333 538.167 436.5 543.5 436.5C548.833 436.5 552.833 436.417 555.5 436.25C558.167 436.083 561.833 435.417 566.5 434.25C571.167 432.917 575.5 431.167 579.5 429C583.5 426.833 587.667 423.667 592 419.5C596.5 415.167 600.333 410.083 603.5 404.25C610.667 390.583 614.25 372.75 614.25 350.75C614.25 335.083 612.333 321.583 608.5 310.25C604.667 298.75 600.25 290.25 595.25 284.75C590.417 279.25 584.5 274.917 577.5 271.75C570.5 268.417 564.917 266.5 560.75 266C556.583 265.5 551.75 265.25 546.25 265.25C540.75 265.25 535.417 265.5 530.25 266V436ZM721.768 439C704.268 439 690.018 434 679.018 424C668.018 414 662.518 398.583 662.518 377.75C662.518 356.917 668.184 340.75 679.518 329.25C691.018 317.75 705.518 312 723.018 312C740.684 312 755.018 317 766.018 327C777.018 337 782.518 352.417 782.518 373.25C782.518 394.083 776.768 410.25 765.268 421.75C753.934 433.25 739.434 439 721.768 439ZM723.518 314C710.851 314 700.351 319.667 692.018 331C683.684 342.167 679.518 357.833 679.518 378C679.518 398 683.351 412.833 691.018 422.5C698.684 432.167 708.851 437 721.518 437C734.184 437 744.684 431.417 753.018 420.25C761.351 408.917 765.518 393.25 765.518 373.25C765.518 353.083 761.684 338.167 754.018 328.5C746.351 318.833 736.184 314 723.518 314ZM986.867 273.5C971.701 267.667 957.367 264.75 943.867 264.75C930.534 264.75 920.117 267.583 912.617 273.25C905.117 278.917 901.367 286.75 901.367 296.75C901.367 308.917 907.701 318.333 920.367 325C926.034 327.833 932.201 330.5 938.867 333C945.701 335.333 952.534 338 959.367 341C966.201 344 972.451 347.417 978.117 351.25C983.784 355.083 988.367 360.417 991.867 367.25C995.367 373.917 997.117 382.5 997.117 393C997.117 403.333 994.201 412.167 988.367 419.5C982.534 426.833 975.451 431.833 967.117 434.5C958.951 437 949.367 438.25 938.367 438.25C917.867 438.25 900.367 433.167 885.867 423L887.117 421C892.617 425.333 899.701 428.917 908.367 431.75C917.201 434.417 926.201 435.75 935.367 435.75C948.867 435.75 960.367 432.667 969.867 426.5C979.534 420.167 984.367 410.917 984.367 398.75C984.367 385.417 978.034 375 965.367 367.5C959.701 364.167 953.451 361.083 946.617 358.25C939.951 355.417 933.201 352.5 926.367 349.5C919.534 346.333 913.284 342.833 907.617 339C894.951 330.667 888.617 318.833 888.617 303.5C888.617 291.333 892.701 281.5 900.867 274C909.034 266.333 921.284 262.5 937.617 262.5C954.117 262.5 970.867 265.333 987.867 271L986.867 273.5ZM1080.03 439C1062.53 439 1048.28 434 1037.28 424C1026.28 414 1020.78 398.583 1020.78 377.75C1020.78 356.917 1026.45 340.75 1037.78 329.25C1049.28 317.75 1063.78 312 1081.28 312C1098.95 312 1113.28 317 1124.28 327C1135.28 337 1140.78 352.417 1140.78 373.25C1140.78 394.083 1135.03 410.25 1123.53 421.75C1112.2 433.25 1097.7 439 1080.03 439ZM1081.78 314C1069.11 314 1058.61 319.667 1050.28 331C1041.95 342.167 1037.78 357.833 1037.78 378C1037.78 398 1041.61 412.833 1049.28 422.5C1056.95 432.167 1067.11 437 1079.78 437C1092.45 437 1102.95 431.417 1111.28 420.25C1119.61 408.917 1123.78 393.25 1123.78 373.25C1123.78 353.083 1119.95 338.167 1112.28 328.5C1104.61 318.833 1094.45 314 1081.78 314ZM1197.42 438C1182.76 438 1173.51 434.167 1169.67 426.5C1168.84 424.833 1168.42 423.333 1168.42 422V250.75H1185.92V420.25C1185.92 425.083 1186.84 428.833 1188.67 431.5C1190.67 434 1192.67 435.333 1194.67 435.5L1197.42 436H1205.17V438H1197.42Z" fill="#222020"/>
<path d="M529.5 263.25V266.25H529.568L529.636 266.247L529.5 263.25ZM573.5 265L572.936 267.946L572.947 267.949L573.5 265ZM597 273.5L595.567 276.136L595.601 276.154L595.636 276.172L597 273.5ZM616.75 289.25L614.431 291.153L614.457 291.185L614.485 291.217L616.75 289.25ZM630 314.5L632.859 313.592V313.592L630 314.5ZM627.5 393.25L624.731 392.096L624.727 392.106L624.723 392.116L627.5 393.25ZM607.5 420.5L605.708 418.094L605.704 418.097L607.5 420.5ZM522 438L522.222 435.008L522.111 435H522V438ZM509.5 438H506.5V441H509.5V438ZM509.5 263.25V260.25H506.5V263.25H509.5ZM530.25 436H527.25V438.728L529.966 438.986L530.25 436ZM566.5 434.25L567.228 437.16L567.276 437.148L567.324 437.135L566.5 434.25ZM579.5 429L580.929 431.638V431.638L579.5 429ZM592 419.5L594.079 421.663L594.081 421.661L592 419.5ZM603.5 404.25L606.137 405.681L606.147 405.662L606.157 405.643L603.5 404.25ZM608.5 310.25L605.654 311.199L605.658 311.211L608.5 310.25ZM595.25 284.75L592.997 286.73L593.013 286.749L593.03 286.768L595.25 284.75ZM577.5 271.75L576.21 274.459L576.237 274.471L576.263 274.483L577.5 271.75ZM560.75 266L560.393 268.979H560.393L560.75 266ZM530.25 266L529.961 263.014L527.25 263.276V266H530.25ZM529.5 263.25L529.636 266.247C536.926 265.916 544.048 265.75 551 265.75V262.75V259.75C543.952 259.75 536.74 259.918 529.364 260.253L529.5 263.25ZM551 262.75V265.75C557.958 265.75 565.268 266.478 572.936 267.946L573.5 265L574.064 262.054C566.065 260.522 558.376 259.75 551 259.75V262.75ZM573.5 265L572.947 267.949C580.618 269.387 588.156 272.108 595.567 276.136L597 273.5L598.433 270.864C590.511 266.559 582.382 263.613 574.053 262.051L573.5 265ZM597 273.5L595.636 276.172C603.118 279.993 609.371 284.987 614.431 291.153L616.75 289.25L619.069 287.347C613.462 280.513 606.548 275.007 598.364 270.828L597 273.5ZM616.75 289.25L614.485 291.217C619.647 297.161 623.894 305.181 627.141 315.408L630 314.5L632.859 313.592C629.439 302.819 624.853 294.006 619.015 287.283L616.75 289.25ZM630 314.5L627.141 315.408C630.354 325.53 632 337.955 632 352.75H635H638C638 337.545 636.313 324.47 632.859 313.592L630 314.5ZM635 352.75H632C632 367.414 629.557 380.514 624.731 392.096L627.5 393.25L630.269 394.404C635.443 381.986 638 368.086 638 352.75H635ZM627.5 393.25L624.723 392.116C620.053 403.548 613.687 412.149 605.708 418.094L607.5 420.5L609.292 422.906C618.313 416.185 625.28 406.619 630.277 394.384L627.5 393.25ZM607.5 420.5L605.704 418.097C589.79 429.992 570.526 436 547.75 436V439V442C571.641 442 592.21 435.674 609.296 422.903L607.5 420.5ZM547.75 439V436C539.664 436 531.155 435.67 522.222 435.008L522 438L521.778 440.992C530.845 441.663 539.502 442 547.75 442V439ZM522 438V435H509.5V438V441H522V438ZM509.5 438H512.5V263.25H509.5H506.5V438H509.5ZM509.5 263.25V266.25H529.5V263.25V260.25H509.5V263.25ZM530.25 436L529.966 438.986C533.595 439.332 538.115 439.5 543.5 439.5V436.5V433.5C538.219 433.5 533.905 433.335 530.534 433.014L530.25 436ZM543.5 436.5V439.5C548.847 439.5 552.924 439.417 555.687 439.244L555.5 436.25L555.313 433.256C552.743 433.416 548.819 433.5 543.5 433.5V436.5ZM555.5 436.25L555.687 439.244C558.626 439.06 562.5 438.342 567.228 437.16L566.5 434.25L565.772 431.34C561.166 432.491 557.707 433.106 555.313 433.256L555.5 436.25ZM566.5 434.25L567.324 437.135C572.187 435.745 576.725 433.915 580.929 431.638L579.5 429L578.071 426.362C574.275 428.418 570.146 430.088 565.676 431.365L566.5 434.25ZM579.5 429L580.929 431.638C585.228 429.309 589.61 425.96 594.079 421.663L592 419.5L589.921 417.337C585.723 421.373 581.772 424.358 578.071 426.362L579.5 429ZM592 419.5L594.081 421.661C598.816 417.101 602.832 411.768 606.137 405.681L603.5 404.25L600.863 402.819C597.834 408.399 594.184 413.232 589.919 417.339L592 419.5ZM603.5 404.25L606.157 405.643C613.624 391.403 617.25 373.042 617.25 350.75H614.25H611.25C611.25 372.458 607.709 389.764 600.843 402.857L603.5 404.25ZM614.25 350.75H617.25C617.25 334.852 615.307 321.011 611.342 309.289L608.5 310.25L605.658 311.211C609.36 322.156 611.25 335.315 611.25 350.75H614.25ZM608.5 310.25L611.346 309.301C607.454 297.625 602.873 288.676 597.47 282.732L595.25 284.75L593.03 286.768C597.627 291.824 601.879 299.875 605.654 311.199L608.5 310.25ZM595.25 284.75L597.504 282.77C592.375 276.933 586.106 272.35 578.737 269.017L577.5 271.75L576.263 274.483C582.894 277.483 588.459 281.567 592.997 286.73L595.25 284.75ZM577.5 271.75L578.79 269.041C571.701 265.666 565.764 263.58 561.107 263.021L560.75 266L560.393 268.979C564.069 269.42 569.299 271.168 576.21 274.459L577.5 271.75ZM560.75 266L561.107 263.021C556.792 262.504 551.835 262.25 546.25 262.25V265.25V268.25C551.665 268.25 556.374 268.496 560.393 268.979L560.75 266ZM546.25 265.25V262.25C540.659 262.25 535.229 262.504 529.961 263.014L530.25 266L530.539 268.986C535.604 268.496 540.841 268.25 546.25 268.25V265.25ZM530.25 266H527.25V436H530.25H533.25V266H530.25ZM679.018 424L681.036 421.78V421.78L679.018 424ZM679.518 329.25L677.396 327.129L677.389 327.136L677.381 327.144L679.518 329.25ZM766.018 327L768.036 324.78L768.036 324.78L766.018 327ZM765.268 421.75L763.146 419.629L763.139 419.636L763.131 419.644L765.268 421.75ZM692.018 331L694.422 332.794L694.428 332.786L694.435 332.777L692.018 331ZM691.018 422.5L693.368 420.636V420.636L691.018 422.5ZM753.018 420.25L755.422 422.044L755.428 422.036L755.435 422.027L753.018 420.25ZM721.768 439V436C704.874 436 691.388 431.191 681.036 421.78L679.018 424L677 426.22C688.648 436.809 703.662 442 721.768 442V439ZM679.018 424L681.036 421.78C670.88 412.548 665.518 398.088 665.518 377.75H662.518H659.518C659.518 399.079 665.155 415.452 677 426.22L679.018 424ZM662.518 377.75H665.518C665.518 357.466 671.022 342.145 681.654 331.356L679.518 329.25L677.381 327.144C665.347 339.355 659.518 356.367 659.518 377.75H662.518ZM679.518 329.25L681.639 331.371C692.531 320.48 706.246 315 723.018 315V312V309C704.789 309 689.504 315.02 677.396 327.129L679.518 329.25ZM723.018 312V315C740.087 315 753.653 319.814 764 329.22L766.018 327L768.036 324.78C756.382 314.186 741.282 309 723.018 309V312ZM766.018 327L764 329.22C774.155 338.452 779.518 352.912 779.518 373.25H782.518H785.518C785.518 351.921 779.88 335.548 768.036 324.78L766.018 327ZM782.518 373.25H779.518C779.518 393.522 773.937 408.838 763.146 419.629L765.268 421.75L767.389 423.871C779.598 411.662 785.518 394.645 785.518 373.25H782.518ZM765.268 421.75L763.131 419.644C752.417 430.515 738.714 436 721.768 436V439V442C740.154 442 755.451 435.985 767.404 423.856L765.268 421.75ZM723.518 314V311C709.781 311 698.427 317.219 689.601 329.223L692.018 331L694.435 332.777C702.275 322.114 711.921 317 723.518 317V314ZM692.018 331L689.613 329.206C680.754 341.077 676.518 357.465 676.518 378H679.518H682.518C682.518 358.201 686.614 343.257 694.422 332.794L692.018 331ZM679.518 378H676.518C676.518 398.287 680.389 413.926 688.667 424.364L691.018 422.5L693.368 420.636C686.313 411.74 682.518 397.713 682.518 378H679.518ZM691.018 422.5L688.667 424.364C696.92 434.77 707.964 440 721.518 440V437V434C709.738 434 700.448 429.563 693.368 420.636L691.018 422.5ZM721.518 437V440C735.235 440 746.588 433.882 755.422 422.044L753.018 420.25L750.613 418.456C742.781 428.951 733.133 434 721.518 434V437ZM753.018 420.25L755.435 422.027C764.276 410.002 768.518 393.628 768.518 373.25H765.518H762.518C762.518 392.872 758.425 407.831 750.601 418.473L753.018 420.25ZM765.518 373.25H768.518C768.518 352.803 764.649 337.077 756.368 326.636L754.018 328.5L751.667 330.364C758.72 339.256 762.518 353.363 762.518 373.25H765.518ZM754.018 328.5L756.368 326.636C748.115 316.23 737.072 311 723.518 311V314V317C735.297 317 744.587 321.437 751.667 330.364L754.018 328.5ZM986.867 273.5L985.79 276.3L988.553 277.363L989.653 274.614L986.867 273.5ZM912.617 273.25L910.809 270.856V270.856L912.617 273.25ZM920.367 325L918.97 327.655L918.998 327.669L919.026 327.683L920.367 325ZM938.867 333L937.814 335.809L937.856 335.825L937.898 335.839L938.867 333ZM959.367 341L960.573 338.253V338.253L959.367 341ZM991.867 367.25L989.197 368.618L989.204 368.631L989.211 368.645L991.867 367.25ZM988.367 419.5L990.715 421.368V421.368L988.367 419.5ZM967.117 434.5L967.995 437.369L968.013 437.363L968.032 437.357L967.117 434.5ZM885.867 423L883.323 421.41L881.815 423.823L884.145 425.456L885.867 423ZM887.117 421L888.974 418.644L886.346 416.573L884.573 419.41L887.117 421ZM908.367 431.75L907.435 434.601L907.467 434.612L907.5 434.622L908.367 431.75ZM969.867 426.5L971.501 429.016L971.511 429.009L969.867 426.5ZM965.367 367.5L966.896 364.919L966.888 364.914L965.367 367.5ZM946.617 358.25L945.444 361.011L945.456 361.016L945.468 361.021L946.617 358.25ZM926.367 349.5L925.106 352.222L925.133 352.235L925.161 352.247L926.367 349.5ZM907.617 339L909.298 336.515L909.282 336.504L909.266 336.494L907.617 339ZM900.867 274L902.896 276.21L902.909 276.198L902.921 276.187L900.867 274ZM987.867 271L990.653 272.114L991.834 269.16L988.816 268.154L987.867 271ZM986.867 273.5L987.944 270.7C972.502 264.761 957.802 261.75 943.867 261.75V264.75V267.75C956.932 267.75 970.899 270.573 985.79 276.3L986.867 273.5ZM943.867 264.75V261.75C930.147 261.75 919.008 264.662 910.809 270.856L912.617 273.25L914.426 275.644C921.227 270.505 930.921 267.75 943.867 267.75V264.75ZM912.617 273.25L910.809 270.856C902.504 277.131 898.367 285.879 898.367 296.75H901.367H904.367C904.367 287.621 907.73 280.702 914.426 275.644L912.617 273.25ZM901.367 296.75H898.367C898.367 310.25 905.528 320.58 918.97 327.655L920.367 325L921.764 322.345C909.873 316.087 904.367 307.584 904.367 296.75H901.367ZM920.367 325L919.026 327.683C924.797 330.569 931.061 333.277 937.814 335.809L938.867 333L939.921 330.191C933.34 327.723 927.271 325.098 921.709 322.317L920.367 325ZM938.867 333L937.898 335.839C944.648 338.144 951.403 340.78 958.161 343.747L959.367 341L960.573 338.253C953.665 335.22 946.753 332.523 939.837 330.161L938.867 333ZM959.367 341L958.161 343.747C964.843 346.681 970.932 350.012 976.436 353.735L978.117 351.25L979.798 348.765C973.969 344.822 967.558 341.319 960.573 338.253L959.367 341ZM978.117 351.25L976.436 353.735C981.635 357.252 985.899 362.178 989.197 368.618L991.867 367.25L994.537 365.882C990.836 358.655 985.932 352.915 979.798 348.765L978.117 351.25ZM991.867 367.25L989.211 368.645C992.414 374.745 994.117 382.805 994.117 393H997.117H1000.12C1000.12 382.195 998.321 373.088 994.523 365.855L991.867 367.25ZM997.117 393H994.117C994.117 402.729 991.387 410.885 986.019 417.632L988.367 419.5L990.715 421.368C997.015 413.448 1000.12 403.938 1000.12 393H997.117ZM988.367 419.5L986.019 417.632C980.528 424.536 973.93 429.17 966.203 431.643L967.117 434.5L968.032 437.357C976.971 434.497 984.54 429.131 990.715 421.368L988.367 419.5ZM967.117 434.5L966.239 431.631C958.425 434.023 949.151 435.25 938.367 435.25V438.25V441.25C949.584 441.25 959.476 439.977 967.995 437.369L967.117 434.5ZM938.367 438.25V435.25C918.383 435.25 901.509 430.303 887.589 420.544L885.867 423L884.145 425.456C899.226 436.03 917.351 441.25 938.367 441.25V438.25ZM885.867 423L888.411 424.59L889.661 422.59L887.117 421L884.573 419.41L883.323 421.41L885.867 423ZM887.117 421L885.261 423.356C891.107 427.963 898.529 431.69 907.435 434.601L908.367 431.75L909.299 428.899C900.872 426.143 894.128 422.704 888.974 418.644L887.117 421ZM908.367 431.75L907.5 434.622C916.613 437.373 925.905 438.75 935.367 438.75V435.75V432.75C926.496 432.75 917.788 431.46 909.234 428.878L908.367 431.75ZM935.367 435.75V438.75C949.334 438.75 961.428 435.555 971.501 429.016L969.867 426.5L968.234 423.984C959.307 429.778 948.4 432.75 935.367 432.75V435.75ZM969.867 426.5L971.511 429.009C982.076 422.088 987.367 411.864 987.367 398.75H984.367H981.367C981.367 409.969 976.991 418.246 968.223 423.991L969.867 426.5ZM984.367 398.75H987.367C987.367 384.23 980.36 372.891 966.896 364.919L965.367 367.5L963.839 370.081C975.708 377.109 981.367 386.603 981.367 398.75H984.367ZM965.367 367.5L966.888 364.914C961.088 361.502 954.712 358.359 947.766 355.479L946.617 358.25L945.468 361.021C952.189 363.808 958.313 366.831 963.846 370.086L965.367 367.5ZM946.617 358.25L947.791 355.489C941.135 352.66 934.396 349.748 927.573 346.753L926.367 349.5L925.161 352.247C932.005 355.252 938.766 358.173 945.444 361.011L946.617 358.25ZM926.367 349.5L927.629 346.778C920.927 343.672 914.819 340.25 909.298 336.515L907.617 339L905.936 341.485C911.749 345.417 918.141 348.994 925.106 352.222L926.367 349.5ZM907.617 339L909.266 336.494C897.454 328.723 891.617 317.838 891.617 303.5H888.617H885.617C885.617 319.829 892.447 332.611 905.968 341.506L907.617 339ZM888.617 303.5H891.617C891.617 292.082 895.412 283.083 902.896 276.21L900.867 274L898.838 271.79C889.989 279.917 885.617 290.584 885.617 303.5H888.617ZM900.867 274L902.921 276.187C910.322 269.239 921.701 265.5 937.617 265.5V262.5V259.5C920.867 259.5 907.746 263.427 898.814 271.813L900.867 274ZM937.617 262.5V265.5C953.768 265.5 970.198 268.273 986.919 273.846L987.867 271L988.816 268.154C971.536 262.394 954.466 259.5 937.617 259.5V262.5ZM987.867 271L985.082 269.886L984.082 272.386L986.867 273.5L989.653 274.614L990.653 272.114L987.867 271ZM1037.28 424L1039.3 421.78V421.78L1037.28 424ZM1037.78 329.25L1035.66 327.129L1035.65 327.136L1035.64 327.144L1037.78 329.25ZM1124.28 327L1126.3 324.78V324.78L1124.28 327ZM1123.53 421.75L1121.41 419.629L1121.4 419.636L1121.39 419.644L1123.53 421.75ZM1050.28 331L1052.68 332.794L1052.69 332.786L1052.7 332.777L1050.28 331ZM1049.28 422.5L1051.63 420.636V420.636L1049.28 422.5ZM1111.28 420.25L1113.68 422.044L1113.69 422.036L1113.7 422.027L1111.28 420.25ZM1080.03 439V436C1063.14 436 1049.65 431.191 1039.3 421.78L1037.28 424L1035.26 426.22C1046.91 436.809 1061.92 442 1080.03 442V439ZM1037.28 424L1039.3 421.78C1029.14 412.548 1023.78 398.088 1023.78 377.75H1020.78H1017.78C1017.78 399.079 1023.42 415.452 1035.26 426.22L1037.28 424ZM1020.78 377.75H1023.78C1023.78 357.466 1029.28 342.145 1039.92 331.356L1037.78 329.25L1035.64 327.144C1023.61 339.355 1017.78 356.367 1017.78 377.75H1020.78ZM1037.78 329.25L1039.9 331.371C1050.79 320.48 1064.51 315 1081.28 315V312V309C1063.05 309 1047.77 315.02 1035.66 327.129L1037.78 329.25ZM1081.28 312V315C1098.35 315 1111.91 319.814 1122.26 329.22L1124.28 327L1126.3 324.78C1114.64 314.186 1099.54 309 1081.28 309V312ZM1124.28 327L1122.26 329.22C1132.42 338.452 1137.78 352.912 1137.78 373.25H1140.78H1143.78C1143.78 351.921 1138.14 335.548 1126.3 324.78L1124.28 327ZM1140.78 373.25H1137.78C1137.78 393.522 1132.2 408.838 1121.41 419.629L1123.53 421.75L1125.65 423.871C1137.86 411.662 1143.78 394.645 1143.78 373.25H1140.78ZM1123.53 421.75L1121.39 419.644C1110.68 430.515 1096.98 436 1080.03 436V439V442C1098.42 442 1113.71 435.985 1125.67 423.856L1123.53 421.75ZM1081.78 314V311C1068.04 311 1056.69 317.219 1047.86 329.223L1050.28 331L1052.7 332.777C1060.54 322.114 1070.18 317 1081.78 317V314ZM1050.28 331L1047.88 329.206C1039.02 341.077 1034.78 357.465 1034.78 378H1037.78H1040.78C1040.78 358.201 1044.88 343.257 1052.68 332.794L1050.28 331ZM1037.78 378H1034.78C1034.78 398.287 1038.65 413.926 1046.93 424.364L1049.28 422.5L1051.63 420.636C1044.57 411.74 1040.78 397.713 1040.78 378H1037.78ZM1049.28 422.5L1046.93 424.364C1055.18 434.77 1066.23 440 1079.78 440V437V434C1068 434 1058.71 429.563 1051.63 420.636L1049.28 422.5ZM1079.78 437V440C1093.5 440 1104.85 433.882 1113.68 422.044L1111.28 420.25L1108.88 418.456C1101.04 428.951 1091.39 434 1079.78 434V437ZM1111.28 420.25L1113.7 422.027C1122.54 410.002 1126.78 393.628 1126.78 373.25H1123.78H1120.78C1120.78 392.872 1116.69 407.831 1108.86 418.473L1111.28 420.25ZM1123.78 373.25H1126.78C1126.78 352.803 1122.91 337.077 1114.63 326.636L1112.28 328.5L1109.93 330.364C1116.98 339.256 1120.78 353.363 1120.78 373.25H1123.78ZM1112.28 328.5L1114.63 326.636C1106.38 316.23 1095.33 311 1081.78 311V314V317C1093.56 317 1102.85 321.437 1109.93 330.364L1112.28 328.5ZM1169.67 426.5L1166.99 427.842L1169.67 426.5ZM1168.42 250.75V247.75H1165.42V250.75H1168.42ZM1185.92 250.75H1188.92V247.75H1185.92V250.75ZM1188.67 431.5L1186.2 433.2L1186.26 433.289L1186.33 433.374L1188.67 431.5ZM1194.67 435.5L1195.21 432.548L1195.07 432.522L1194.92 432.51L1194.67 435.5ZM1197.42 436L1196.89 438.952L1197.15 439H1197.42V436ZM1205.17 436H1208.17V433H1205.17V436ZM1205.17 438V441H1208.17V438H1205.17ZM1197.42 438V435C1183.04 435 1175.39 431.223 1172.36 425.158L1169.67 426.5L1166.99 427.842C1171.62 437.11 1182.47 441 1197.42 441V438ZM1169.67 426.5L1172.36 425.158C1171.65 423.753 1171.42 422.72 1171.42 422H1168.42H1165.42C1165.42 423.947 1166.02 425.914 1166.99 427.842L1169.67 426.5ZM1168.42 422H1171.42V250.75H1168.42H1165.42V422H1168.42ZM1168.42 250.75V253.75H1185.92V250.75V247.75H1168.42V250.75ZM1185.92 250.75H1182.92V420.25H1185.92H1188.92V250.75H1185.92ZM1185.92 420.25H1182.92C1182.92 425.408 1183.89 429.842 1186.2 433.2L1188.67 431.5L1191.14 429.8C1189.79 427.825 1188.92 424.759 1188.92 420.25H1185.92ZM1188.67 431.5L1186.33 433.374C1188.55 436.145 1191.22 438.223 1194.42 438.49L1194.67 435.5L1194.92 432.51C1194.12 432.444 1192.8 431.855 1191.01 429.626L1188.67 431.5ZM1194.67 435.5L1194.14 438.452L1196.89 438.952L1197.42 436L1197.96 433.048L1195.21 432.548L1194.67 435.5ZM1197.42 436V439H1205.17V436V433H1197.42V436ZM1205.17 436H1202.17V438H1205.17H1208.17V436H1205.17ZM1205.17 438V435H1197.42V438V441H1205.17V438Z" fill="#222020" mask="url(#path-4-outside-2_557_36)"/>
<path d="M351.68 188.053C253.373 188.053 173.68 267.747 173.68 366.053C173.68 393.22 179.766 418.965 190.649 442H430V206.165C406.366 194.566 379.783 188.053 351.68 188.053Z" stroke="#222020" stroke-width="20"/>
<path d="M430 86V442H74" stroke="#222020" stroke-width="20" stroke-linecap="round"/>
<path d="M368.293 86V131.093" stroke="#222020" stroke-width="20" stroke-linecap="round"/>
<path d="M275.914 100.181L289.701 143.115" stroke="#222020" stroke-width="20" stroke-linecap="round"/>
<path d="M192.411 143.143L218.972 179.583" stroke="#222020" stroke-width="20" stroke-linecap="round"/>
<path d="M126.345 209.229L162.733 235.863" stroke="#222020" stroke-width="20" stroke-linecap="round"/>
<path d="M83.5283 292.369L126.409 306.321" stroke="#222020" stroke-width="20" stroke-linecap="round"/>
<path d="M74 385.04H119.093" stroke="#222020" stroke-width="20" stroke-linecap="round"/>
</svg>
