<svg width="1085" height="600" viewBox="0 0 1085 600" fill="none" xmlns="http://www.w3.org/2000/svg">
<mask id="path-2-outside-1_547_56" maskUnits="userSpaceOnUse" x="392" y="115" width="475" height="156" fill="black">
<rect fill="white" x="392" y="115" width="475" height="156"/>
<path d="M394.05 119.22C410.677 118.073 425.297 117.5 437.91 117.5C473.457 117.5 491.23 130.042 491.23 155.125C491.23 166.735 488.22 176.912 482.2 185.655C479.047 190.385 474.173 194.183 467.58 197.05C460.987 199.773 453.032 201.135 443.715 201.135H411.895V268H394.05V119.22ZM438.125 119.65C429.812 119.65 421.068 120.152 411.895 121.155V198.985H443.715C463.925 198.125 474.03 183.648 474.03 155.555C474.03 144.088 471.02 135.273 465 129.11C458.98 122.803 450.022 119.65 438.125 119.65ZM557.393 268.86C542.343 268.86 530.088 264.56 520.628 255.96C511.168 247.36 506.438 234.102 506.438 216.185C506.438 198.268 511.311 184.365 521.058 174.475C530.948 164.585 543.418 159.64 558.468 159.64C573.661 159.64 585.988 163.94 595.448 172.54C604.908 181.14 609.638 194.398 609.638 212.315C609.638 230.232 604.693 244.135 594.803 254.025C585.056 263.915 572.586 268.86 557.393 268.86ZM558.898 161.36C548.005 161.36 538.975 166.233 531.808 175.98C524.641 185.583 521.058 199.057 521.058 216.4C521.058 233.6 524.355 246.357 530.948 254.67C537.541 262.983 546.285 267.14 557.178 267.14C568.071 267.14 577.101 262.338 584.268 252.735C591.435 242.988 595.018 229.515 595.018 212.315C595.018 194.972 591.721 182.143 585.128 173.83C578.535 165.517 569.791 161.36 558.898 161.36ZM663.611 169.745V165.23C657.161 167.81 651.285 173.042 645.981 180.925C640.678 188.665 637.883 195.975 637.596 202.855V268H622.546V160.5H637.596V194.685C639.89 186.372 644.261 178.56 650.711 171.25C657.161 163.797 664.471 159.927 672.641 159.64H673.501C676.368 159.64 678.733 160.643 680.596 162.65C682.603 164.513 683.606 166.878 683.606 169.745C683.606 172.612 682.603 174.977 680.596 176.84C678.733 178.703 676.368 179.635 673.501 179.635C670.635 179.635 668.27 178.703 666.406 176.84C664.543 174.977 663.611 172.612 663.611 169.745ZM698.737 162.22V160.5H703.252V139H718.302V160.5H751.197V162.22H718.302V240.48C718.302 249.797 719.305 256.533 721.312 260.69C723.462 264.847 727.834 266.925 734.427 266.925C741.164 266.925 747.972 265.563 754.852 262.84L755.497 264.56C748.33 267.283 740.089 268.645 730.772 268.645C721.599 268.645 714.719 266.782 710.132 263.055C705.545 259.185 703.252 251.588 703.252 240.265V162.22H698.737ZM811.866 268.86C796.816 268.86 784.561 264.56 775.101 255.96C765.641 247.36 760.911 234.102 760.911 216.185C760.911 198.268 765.784 184.365 775.531 174.475C785.421 164.585 797.891 159.64 812.941 159.64C828.134 159.64 840.461 163.94 849.921 172.54C859.381 181.14 864.111 194.398 864.111 212.315C864.111 230.232 859.166 244.135 849.276 254.025C839.529 263.915 827.059 268.86 811.866 268.86ZM813.371 161.36C802.477 161.36 793.447 166.233 786.281 175.98C779.114 185.583 775.531 199.057 775.531 216.4C775.531 233.6 778.827 246.357 785.421 254.67C792.014 262.983 800.757 267.14 811.651 267.14C822.544 267.14 831.574 262.338 838.741 252.735C845.907 242.988 849.491 229.515 849.491 212.315C849.491 194.972 846.194 182.143 839.601 173.83C833.007 165.517 824.264 161.36 813.371 161.36Z"/>
</mask>
<path d="M394.05 119.22C410.677 118.073 425.297 117.5 437.91 117.5C473.457 117.5 491.23 130.042 491.23 155.125C491.23 166.735 488.22 176.912 482.2 185.655C479.047 190.385 474.173 194.183 467.58 197.05C460.987 199.773 453.032 201.135 443.715 201.135H411.895V268H394.05V119.22ZM438.125 119.65C429.812 119.65 421.068 120.152 411.895 121.155V198.985H443.715C463.925 198.125 474.03 183.648 474.03 155.555C474.03 144.088 471.02 135.273 465 129.11C458.98 122.803 450.022 119.65 438.125 119.65ZM557.393 268.86C542.343 268.86 530.088 264.56 520.628 255.96C511.168 247.36 506.438 234.102 506.438 216.185C506.438 198.268 511.311 184.365 521.058 174.475C530.948 164.585 543.418 159.64 558.468 159.64C573.661 159.64 585.988 163.94 595.448 172.54C604.908 181.14 609.638 194.398 609.638 212.315C609.638 230.232 604.693 244.135 594.803 254.025C585.056 263.915 572.586 268.86 557.393 268.86ZM558.898 161.36C548.005 161.36 538.975 166.233 531.808 175.98C524.641 185.583 521.058 199.057 521.058 216.4C521.058 233.6 524.355 246.357 530.948 254.67C537.541 262.983 546.285 267.14 557.178 267.14C568.071 267.14 577.101 262.338 584.268 252.735C591.435 242.988 595.018 229.515 595.018 212.315C595.018 194.972 591.721 182.143 585.128 173.83C578.535 165.517 569.791 161.36 558.898 161.36ZM663.611 169.745V165.23C657.161 167.81 651.285 173.042 645.981 180.925C640.678 188.665 637.883 195.975 637.596 202.855V268H622.546V160.5H637.596V194.685C639.89 186.372 644.261 178.56 650.711 171.25C657.161 163.797 664.471 159.927 672.641 159.64H673.501C676.368 159.64 678.733 160.643 680.596 162.65C682.603 164.513 683.606 166.878 683.606 169.745C683.606 172.612 682.603 174.977 680.596 176.84C678.733 178.703 676.368 179.635 673.501 179.635C670.635 179.635 668.27 178.703 666.406 176.84C664.543 174.977 663.611 172.612 663.611 169.745ZM698.737 162.22V160.5H703.252V139H718.302V160.5H751.197V162.22H718.302V240.48C718.302 249.797 719.305 256.533 721.312 260.69C723.462 264.847 727.834 266.925 734.427 266.925C741.164 266.925 747.972 265.563 754.852 262.84L755.497 264.56C748.33 267.283 740.089 268.645 730.772 268.645C721.599 268.645 714.719 266.782 710.132 263.055C705.545 259.185 703.252 251.588 703.252 240.265V162.22H698.737ZM811.866 268.86C796.816 268.86 784.561 264.56 775.101 255.96C765.641 247.36 760.911 234.102 760.911 216.185C760.911 198.268 765.784 184.365 775.531 174.475C785.421 164.585 797.891 159.64 812.941 159.64C828.134 159.64 840.461 163.94 849.921 172.54C859.381 181.14 864.111 194.398 864.111 212.315C864.111 230.232 859.166 244.135 849.276 254.025C839.529 263.915 827.059 268.86 811.866 268.86ZM813.371 161.36C802.477 161.36 793.447 166.233 786.281 175.98C779.114 185.583 775.531 199.057 775.531 216.4C775.531 233.6 778.827 246.357 785.421 254.67C792.014 262.983 800.757 267.14 811.651 267.14C822.544 267.14 831.574 262.338 838.741 252.735C845.907 242.988 849.491 229.515 849.491 212.315C849.491 194.972 846.194 182.143 839.601 173.83C833.007 165.517 824.264 161.36 813.371 161.36Z" fill="#EF9B1B"/>
<path d="M394.05 119.22L393.912 117.225L392.05 117.353V119.22H394.05ZM482.2 185.655L480.553 184.521L480.544 184.533L480.536 184.546L482.2 185.655ZM467.58 197.05L468.344 198.899L468.361 198.891L468.377 198.884L467.58 197.05ZM411.895 201.135V199.135H409.895V201.135H411.895ZM411.895 268V270H413.895V268H411.895ZM394.05 268H392.05V270H394.05V268ZM411.895 121.155L411.678 119.167L409.895 119.362V121.155H411.895ZM411.895 198.985H409.895V200.985H411.895V198.985ZM443.715 198.985V200.985H443.758L443.8 200.983L443.715 198.985ZM465 129.11L463.553 130.491L463.561 130.499L463.569 130.507L465 129.11ZM394.05 119.22L394.188 121.215C410.782 120.071 425.354 119.5 437.91 119.5V117.5V115.5C425.239 115.5 410.571 116.076 393.912 117.225L394.05 119.22ZM437.91 117.5V119.5C455.509 119.5 468.351 122.616 476.747 128.54C485.015 134.375 489.23 143.119 489.23 155.125H491.23H493.23C493.23 142.048 488.558 131.979 479.053 125.272C469.676 118.655 455.858 115.5 437.91 115.5V117.5ZM491.23 155.125H489.23C489.23 166.37 486.321 176.142 480.553 184.521L482.2 185.655L483.847 186.789C490.119 177.681 493.23 167.1 493.23 155.125H491.23ZM482.2 185.655L480.536 184.546C477.646 188.881 473.116 192.462 466.783 195.216L467.58 197.05L468.377 198.884C475.231 195.905 480.448 191.889 483.864 186.764L482.2 185.655ZM467.58 197.05L466.816 195.201C460.527 197.799 452.846 199.135 443.715 199.135V201.135V203.135C453.217 203.135 461.446 201.747 468.344 198.899L467.58 197.05ZM443.715 201.135V199.135H411.895V201.135V203.135H443.715V201.135ZM411.895 201.135H409.895V268H411.895H413.895V201.135H411.895ZM411.895 268V266H394.05V268V270H411.895V268ZM394.05 268H396.05V119.22H394.05H392.05V268H394.05ZM438.125 119.65V117.65C429.732 117.65 420.915 118.156 411.678 119.167L411.895 121.155L412.112 123.143C421.221 122.147 429.892 121.65 438.125 121.65V119.65ZM411.895 121.155H409.895V198.985H411.895H413.895V121.155H411.895ZM411.895 198.985V200.985H443.715V198.985V196.985H411.895V198.985ZM443.715 198.985L443.8 200.983C454.425 200.531 462.627 196.456 468.091 188.627C473.48 180.908 476.03 169.788 476.03 155.555H474.03H472.03C472.03 169.415 469.528 179.581 464.811 186.338C460.171 192.986 453.215 196.579 443.63 196.987L443.715 198.985ZM474.03 155.555H476.03C476.03 143.744 472.924 134.36 466.431 127.713L465 129.11L463.569 130.507C469.116 136.187 472.03 144.433 472.03 155.555H474.03ZM465 129.11L466.447 127.729C459.928 120.9 450.363 117.65 438.125 117.65V119.65V121.65C449.681 121.65 458.032 124.707 463.553 130.491L465 129.11ZM520.628 255.96L521.973 254.48V254.48L520.628 255.96ZM521.058 174.475L519.644 173.061L519.639 173.066L519.633 173.071L521.058 174.475ZM595.448 172.54L596.793 171.06V171.06L595.448 172.54ZM594.803 254.025L593.389 252.611L593.384 252.616L593.378 252.621L594.803 254.025ZM531.808 175.98L533.411 177.176L533.415 177.17L533.419 177.165L531.808 175.98ZM530.948 254.67L532.515 253.427V253.427L530.948 254.67ZM584.268 252.735L585.871 253.931L585.875 253.925L585.879 253.92L584.268 252.735ZM557.393 268.86V266.86C542.747 266.86 531.001 262.687 521.973 254.48L520.628 255.96L519.283 257.44C529.175 266.433 541.939 270.86 557.393 270.86V268.86ZM520.628 255.96L521.973 254.48C513.076 246.392 508.438 233.771 508.438 216.185H506.438H504.438C504.438 234.432 509.26 248.328 519.283 257.44L520.628 255.96ZM506.438 216.185H508.438C508.438 198.635 513.203 185.295 522.482 175.879L521.058 174.475L519.633 173.071C509.42 183.435 504.438 197.902 504.438 216.185H506.438ZM521.058 174.475L522.472 175.889C531.957 166.405 543.904 161.64 558.468 161.64V159.64V157.64C542.932 157.64 529.939 162.765 519.644 173.061L521.058 174.475ZM558.468 159.64V161.64C573.263 161.64 585.078 165.816 594.103 174.02L595.448 172.54L596.793 171.06C586.898 162.064 574.06 157.64 558.468 157.64V159.64ZM595.448 172.54L594.103 174.02C603 182.108 607.638 194.729 607.638 212.315H609.638H611.638C611.638 194.068 606.816 180.172 596.793 171.06L595.448 172.54ZM609.638 212.315H607.638C607.638 229.857 602.806 243.193 593.389 252.611L594.803 254.025L596.217 255.439C606.58 245.077 611.638 230.606 611.638 212.315H609.638ZM594.803 254.025L593.378 252.621C584.045 262.092 572.106 266.86 557.393 266.86V268.86V270.86C573.066 270.86 586.068 265.738 596.227 255.429L594.803 254.025ZM558.898 161.36V159.36C547.291 159.36 537.692 164.601 530.197 174.795L531.808 175.98L533.419 177.165C540.257 167.865 548.718 163.36 558.898 163.36V161.36ZM531.808 175.98L530.205 174.784C522.688 184.857 519.058 198.811 519.058 216.4H521.058H523.058C523.058 199.302 526.594 186.31 533.411 177.176L531.808 175.98ZM521.058 216.4H519.058C519.058 233.791 522.38 247.085 529.381 255.913L530.948 254.67L532.515 253.427C526.329 245.628 523.058 233.409 523.058 216.4H521.058ZM530.948 254.67L529.381 255.913C536.365 264.719 545.693 269.14 557.178 269.14V267.14V265.14C546.876 265.14 538.717 261.248 532.515 253.427L530.948 254.67ZM557.178 267.14V269.14C568.772 269.14 578.37 263.982 585.871 253.931L584.268 252.735L582.665 251.539C575.832 260.695 567.371 265.14 557.178 265.14V267.14ZM584.268 252.735L585.879 253.92C593.385 243.712 597.018 229.767 597.018 212.315H595.018H593.018C593.018 229.263 589.484 242.265 582.657 251.55L584.268 252.735ZM595.018 212.315H597.018C597.018 194.785 593.698 181.417 586.695 172.587L585.128 173.83L583.561 175.073C589.745 182.87 593.018 195.158 593.018 212.315H595.018ZM585.128 173.83L586.695 172.587C579.711 163.781 570.383 159.36 558.898 159.36V161.36V163.36C569.2 163.36 577.359 167.252 583.561 175.073L585.128 173.83ZM663.611 165.23H665.611V162.276L662.868 163.373L663.611 165.23ZM645.981 180.925L647.631 182.055L647.636 182.048L647.641 182.041L645.981 180.925ZM637.596 202.855L635.598 202.772L635.596 202.813V202.855H637.596ZM637.596 268V270H639.596V268H637.596ZM622.546 268H620.546V270H622.546V268ZM622.546 160.5V158.5H620.546V160.5H622.546ZM637.596 160.5H639.596V158.5H637.596V160.5ZM637.596 194.685H635.596L639.524 195.217L637.596 194.685ZM650.711 171.25L652.211 172.573L652.217 172.566L652.224 172.559L650.711 171.25ZM672.641 159.64V157.64H672.606L672.571 157.641L672.641 159.64ZM680.596 162.65L679.131 164.011L679.181 164.065L679.235 164.116L680.596 162.65ZM680.596 176.84L679.235 175.374L679.208 175.4L679.182 175.426L680.596 176.84ZM666.406 176.84L667.82 175.426V175.426L666.406 176.84ZM663.611 169.745H665.611V165.23H663.611H661.611V169.745H663.611ZM663.611 165.23L662.868 163.373C655.931 166.148 649.769 171.711 644.322 179.809L645.981 180.925L647.641 182.041C652.8 174.372 658.391 169.472 664.354 167.087L663.611 165.23ZM645.981 180.925L644.331 179.795C638.89 187.736 635.905 195.404 635.598 202.772L637.596 202.855L639.595 202.938C639.861 196.546 642.466 189.594 647.631 182.055L645.981 180.925ZM637.596 202.855H635.596V268H637.596H639.596V202.855H637.596ZM637.596 268V266H622.546V268V270H637.596V268ZM622.546 268H624.546V160.5H622.546H620.546V268H622.546ZM622.546 160.5V162.5H637.596V160.5V158.5H622.546V160.5ZM637.596 160.5H635.596V194.685H637.596H639.596V160.5H637.596ZM637.596 194.685L639.524 195.217C641.727 187.233 645.936 179.685 652.211 172.573L650.711 171.25L649.212 169.927C642.587 177.435 638.052 185.511 635.668 194.153L637.596 194.685ZM650.711 171.25L652.224 172.559C658.391 165.432 665.21 161.902 672.711 161.639L672.641 159.64L672.571 157.641C663.733 157.951 655.932 162.161 649.199 169.941L650.711 171.25ZM672.641 159.64V161.64H673.501V159.64V157.64H672.641V159.64ZM673.501 159.64V161.64C675.841 161.64 677.665 162.433 679.131 164.011L680.596 162.65L682.062 161.289C679.801 158.854 676.895 157.64 673.501 157.64V159.64ZM680.596 162.65L679.235 164.116C680.813 165.581 681.606 167.405 681.606 169.745H683.606H685.606C685.606 166.352 684.392 163.446 681.957 161.184L680.596 162.65ZM683.606 169.745H681.606C681.606 172.085 680.813 173.909 679.235 175.374L680.596 176.84L681.957 178.306C684.392 176.044 685.606 173.138 685.606 169.745H683.606ZM680.596 176.84L679.182 175.426C677.729 176.879 675.889 177.635 673.501 177.635V179.635V181.635C676.847 181.635 679.737 180.527 682.01 178.254L680.596 176.84ZM673.501 179.635V177.635C671.114 177.635 669.274 176.879 667.82 175.426L666.406 176.84L664.992 178.254C667.265 180.527 670.156 181.635 673.501 181.635V179.635ZM666.406 176.84L667.82 175.426C666.367 173.972 665.611 172.133 665.611 169.745H663.611H661.611C661.611 173.091 662.719 175.981 664.992 178.254L666.406 176.84ZM698.737 162.22H696.737V164.22H698.737V162.22ZM698.737 160.5V158.5H696.737V160.5H698.737ZM703.252 160.5V162.5H705.252V160.5H703.252ZM703.252 139V137H701.252V139H703.252ZM718.302 139H720.302V137H718.302V139ZM718.302 160.5H716.302V162.5H718.302V160.5ZM751.197 160.5H753.197V158.5H751.197V160.5ZM751.197 162.22V164.22H753.197V162.22H751.197ZM718.302 162.22V160.22H716.302V162.22H718.302ZM721.312 260.69L719.511 261.559L719.523 261.584L719.535 261.609L721.312 260.69ZM754.852 262.84L756.725 262.138L756.009 260.231L754.116 260.98L754.852 262.84ZM755.497 264.56L756.207 266.43L758.069 265.722L757.37 263.858L755.497 264.56ZM710.132 263.055L708.842 264.584L708.856 264.596L708.871 264.607L710.132 263.055ZM703.252 162.22H705.252V160.22H703.252V162.22ZM698.737 162.22H700.737V160.5H698.737H696.737V162.22H698.737ZM698.737 160.5V162.5H703.252V160.5V158.5H698.737V160.5ZM703.252 160.5H705.252V139H703.252H701.252V160.5H703.252ZM703.252 139V141H718.302V139V137H703.252V139ZM718.302 139H716.302V160.5H718.302H720.302V139H718.302ZM718.302 160.5V162.5H751.197V160.5V158.5H718.302V160.5ZM751.197 160.5H749.197V162.22H751.197H753.197V160.5H751.197ZM751.197 162.22V160.22H718.302V162.22V164.22H751.197V162.22ZM718.302 162.22H716.302V240.48H718.302H720.302V162.22H718.302ZM718.302 240.48H716.302C716.302 249.852 717.297 256.974 719.511 261.559L721.312 260.69L723.113 259.82C721.313 256.093 720.302 249.742 720.302 240.48H718.302ZM721.312 260.69L719.535 261.609C722.164 266.69 727.434 268.925 734.427 268.925V266.925V264.925C728.233 264.925 724.76 263.003 723.088 259.771L721.312 260.69ZM734.427 266.925V268.925C741.439 268.925 748.497 267.507 755.588 264.7L754.852 262.84L754.116 260.98C747.447 263.62 740.888 264.925 734.427 264.925V266.925ZM754.852 262.84L752.979 263.542L753.624 265.262L755.497 264.56L757.37 263.858L756.725 262.138L754.852 262.84ZM755.497 264.56L754.786 262.69C747.89 265.311 739.897 266.645 730.772 266.645V268.645V270.645C740.281 270.645 748.771 269.255 756.207 266.43L755.497 264.56ZM730.772 268.645V266.645C721.818 266.645 715.473 264.818 711.393 261.503L710.132 263.055L708.871 264.607C713.964 268.745 721.379 270.645 730.772 270.645V268.645ZM710.132 263.055L711.422 261.526C707.554 258.263 705.252 251.478 705.252 240.265H703.252H701.252C701.252 251.699 703.536 260.107 708.842 264.584L710.132 263.055ZM703.252 240.265H705.252V162.22H703.252H701.252V240.265H703.252ZM703.252 162.22V160.22H698.737V162.22V164.22H703.252V162.22ZM775.101 255.96L776.446 254.48V254.48L775.101 255.96ZM775.531 174.475L774.116 173.061L774.111 173.066L774.106 173.071L775.531 174.475ZM849.921 172.54L851.266 171.06V171.06L849.921 172.54ZM849.276 254.025L847.861 252.611L847.856 252.616L847.851 252.621L849.276 254.025ZM786.281 175.98L787.883 177.176L787.888 177.17L787.892 177.165L786.281 175.98ZM785.421 254.67L786.988 253.427V253.427L785.421 254.67ZM838.741 252.735L840.343 253.931L840.348 253.925L840.352 253.92L838.741 252.735ZM811.866 268.86V266.86C797.22 266.86 785.474 262.687 776.446 254.48L775.101 255.96L773.755 257.44C783.647 266.433 796.412 270.86 811.866 270.86V268.86ZM775.101 255.96L776.446 254.48C767.549 246.392 762.911 233.771 762.911 216.185H760.911H758.911C758.911 234.432 763.732 248.328 773.755 257.44L775.101 255.96ZM760.911 216.185H762.911C762.911 198.635 767.675 185.295 776.955 175.879L775.531 174.475L774.106 173.071C763.892 183.435 758.911 197.902 758.911 216.185H760.911ZM775.531 174.475L776.945 175.889C786.429 166.405 798.376 161.64 812.941 161.64V159.64V157.64C797.405 157.64 784.412 162.765 774.116 173.061L775.531 174.475ZM812.941 159.64V161.64C827.736 161.64 839.551 165.816 848.575 174.02L849.921 172.54L851.266 171.06C841.37 162.064 828.532 157.64 812.941 157.64V159.64ZM849.921 172.54L848.575 174.02C857.472 182.108 862.111 194.729 862.111 212.315H864.111H866.111C866.111 194.068 861.289 180.172 851.266 171.06L849.921 172.54ZM864.111 212.315H862.111C862.111 229.857 857.279 243.193 847.861 252.611L849.276 254.025L850.69 255.439C861.052 245.077 866.111 230.606 866.111 212.315H864.111ZM849.276 254.025L847.851 252.621C838.518 262.092 826.579 266.86 811.866 266.86V268.86V270.86C827.539 270.86 840.54 265.738 850.7 255.429L849.276 254.025ZM813.371 161.36V159.36C801.764 159.36 792.165 164.601 784.669 174.795L786.281 175.98L787.892 177.165C794.73 167.865 803.191 163.36 813.371 163.36V161.36ZM786.281 175.98L784.678 174.784C777.161 184.857 773.531 198.811 773.531 216.4H775.531H777.531C777.531 199.302 781.067 186.31 787.883 177.176L786.281 175.98ZM775.531 216.4H773.531C773.531 233.791 776.853 247.085 783.854 255.913L785.421 254.67L786.988 253.427C780.802 245.628 777.531 233.409 777.531 216.4H775.531ZM785.421 254.67L783.854 255.913C790.838 264.719 800.166 269.14 811.651 269.14V267.14V265.14C801.349 265.14 793.19 261.248 786.988 253.427L785.421 254.67ZM811.651 267.14V269.14C823.245 269.14 832.843 263.982 840.343 253.931L838.741 252.735L837.138 251.539C830.305 260.695 821.843 265.14 811.651 265.14V267.14ZM838.741 252.735L840.352 253.92C847.858 243.712 851.491 229.767 851.491 212.315H849.491H847.491C847.491 229.263 843.957 242.265 837.129 251.55L838.741 252.735ZM849.491 212.315H851.491C851.491 194.785 848.17 181.417 841.168 172.587L839.601 173.83L838.034 175.073C844.217 182.87 847.491 195.158 847.491 212.315H849.491ZM839.601 173.83L841.168 172.587C834.183 163.781 824.855 159.36 813.371 159.36V161.36V163.36C823.672 163.36 831.831 167.252 838.034 175.073L839.601 173.83Z" fill="#EF9B1B" mask="url(#path-2-outside-1_547_56)"/>
<mask id="path-4-outside-2_547_56" maskUnits="userSpaceOnUse" x="209" y="278" width="676" height="193" fill="black">
<rect fill="white" x="209" y="278" width="676" height="193"/>
<path d="M231.5 293.25C238.833 292.917 246 292.75 253 292.75C260.167 292.75 267.667 293.5 275.5 295C283.5 296.5 291.333 299.333 299 303.5C306.833 307.5 313.417 312.75 318.75 319.25C324.25 325.583 328.667 334 332 344.5C335.333 355 337 367.75 337 382.75C337 397.75 334.5 411.25 329.5 423.25C324.667 435.083 318 444.167 309.5 450.5C293 462.833 273.083 469 249.75 469C241.583 469 233 468.667 224 468H211.5V293.25H231.5ZM232.25 466C235.75 466.333 240.167 466.5 245.5 466.5C250.833 466.5 254.833 466.417 257.5 466.25C260.167 466.083 263.833 465.417 268.5 464.25C273.167 462.917 277.5 461.167 281.5 459C285.5 456.833 289.667 453.667 294 449.5C298.5 445.167 302.333 440.083 305.5 434.25C312.667 420.583 316.25 402.75 316.25 380.75C316.25 365.083 314.333 351.583 310.5 340.25C306.667 328.75 302.25 320.25 297.25 314.75C292.417 309.25 286.5 304.917 279.5 301.75C272.5 298.417 266.917 296.5 262.75 296C258.583 295.5 253.75 295.25 248.25 295.25C242.75 295.25 237.417 295.5 232.25 296V466ZM418.768 469C401.268 469 387.018 464 376.018 454C365.018 444 359.518 428.583 359.518 407.75C359.518 386.917 365.184 370.75 376.518 359.25C388.018 347.75 402.518 342 420.018 342C437.684 342 452.018 347 463.018 357C474.018 367 479.518 382.417 479.518 403.25C479.518 424.083 473.768 440.25 462.268 451.75C450.934 463.25 436.434 469 418.768 469ZM420.518 344C407.851 344 397.351 349.667 389.018 361C380.684 372.167 376.518 387.833 376.518 408C376.518 428 380.351 442.833 388.018 452.5C395.684 462.167 405.851 467 418.518 467C431.184 467 441.684 461.417 450.018 450.25C458.351 438.917 462.518 423.25 462.518 403.25C462.518 383.083 458.684 368.167 451.018 358.5C443.351 348.833 433.184 344 420.518 344ZM673.867 303.5C658.701 297.667 644.367 294.75 630.867 294.75C617.534 294.75 607.117 297.583 599.617 303.25C592.117 308.917 588.367 316.75 588.367 326.75C588.367 338.917 594.701 348.333 607.367 355C613.034 357.833 619.201 360.5 625.867 363C632.701 365.333 639.534 368 646.367 371C653.201 374 659.451 377.417 665.117 381.25C670.784 385.083 675.367 390.417 678.867 397.25C682.367 403.917 684.117 412.5 684.117 423C684.117 433.333 681.201 442.167 675.367 449.5C669.534 456.833 662.451 461.833 654.117 464.5C645.951 467 636.367 468.25 625.367 468.25C604.867 468.25 587.367 463.167 572.867 453L574.117 451C579.617 455.333 586.701 458.917 595.367 461.75C604.201 464.417 613.201 465.75 622.367 465.75C635.867 465.75 647.367 462.667 656.867 456.5C666.534 450.167 671.367 440.917 671.367 428.75C671.367 415.417 665.034 405 652.367 397.5C646.701 394.167 640.451 391.083 633.617 388.25C626.951 385.417 620.201 382.5 613.367 379.5C606.534 376.333 600.284 372.833 594.617 369C581.951 360.667 575.617 348.833 575.617 333.5C575.617 321.333 579.701 311.5 587.867 304C596.034 296.333 608.284 292.5 624.617 292.5C641.117 292.5 657.867 295.333 674.867 301L673.867 303.5ZM762.029 469C744.529 469 730.279 464 719.279 454C708.279 444 702.779 428.583 702.779 407.75C702.779 386.917 708.446 370.75 719.779 359.25C731.279 347.75 745.779 342 763.279 342C780.946 342 795.279 347 806.279 357C817.279 367 822.779 382.417 822.779 403.25C822.779 424.083 817.029 440.25 805.529 451.75C794.196 463.25 779.696 469 762.029 469ZM763.779 344C751.113 344 740.613 349.667 732.279 361C723.946 372.167 719.779 387.833 719.779 408C719.779 428 723.613 442.833 731.279 452.5C738.946 462.167 749.113 467 761.779 467C774.446 467 784.946 461.417 793.279 450.25C801.613 438.917 805.779 423.25 805.779 403.25C805.779 383.083 801.946 368.167 794.279 358.5C786.613 348.833 776.446 344 763.779 344ZM874.422 468C859.755 468 850.505 464.167 846.672 456.5C845.839 454.833 845.422 453.333 845.422 452V280.75H862.922V450.25C862.922 455.083 863.839 458.833 865.672 461.5C867.672 464 869.672 465.333 871.672 465.5L874.422 466H882.172V468H874.422Z"/>
</mask>
<path d="M231.5 293.25C238.833 292.917 246 292.75 253 292.75C260.167 292.75 267.667 293.5 275.5 295C283.5 296.5 291.333 299.333 299 303.5C306.833 307.5 313.417 312.75 318.75 319.25C324.25 325.583 328.667 334 332 344.5C335.333 355 337 367.75 337 382.75C337 397.75 334.5 411.25 329.5 423.25C324.667 435.083 318 444.167 309.5 450.5C293 462.833 273.083 469 249.75 469C241.583 469 233 468.667 224 468H211.5V293.25H231.5ZM232.25 466C235.75 466.333 240.167 466.5 245.5 466.5C250.833 466.5 254.833 466.417 257.5 466.25C260.167 466.083 263.833 465.417 268.5 464.25C273.167 462.917 277.5 461.167 281.5 459C285.5 456.833 289.667 453.667 294 449.5C298.5 445.167 302.333 440.083 305.5 434.25C312.667 420.583 316.25 402.75 316.25 380.75C316.25 365.083 314.333 351.583 310.5 340.25C306.667 328.75 302.25 320.25 297.25 314.75C292.417 309.25 286.5 304.917 279.5 301.75C272.5 298.417 266.917 296.5 262.75 296C258.583 295.5 253.75 295.25 248.25 295.25C242.75 295.25 237.417 295.5 232.25 296V466ZM418.768 469C401.268 469 387.018 464 376.018 454C365.018 444 359.518 428.583 359.518 407.75C359.518 386.917 365.184 370.75 376.518 359.25C388.018 347.75 402.518 342 420.018 342C437.684 342 452.018 347 463.018 357C474.018 367 479.518 382.417 479.518 403.25C479.518 424.083 473.768 440.25 462.268 451.75C450.934 463.25 436.434 469 418.768 469ZM420.518 344C407.851 344 397.351 349.667 389.018 361C380.684 372.167 376.518 387.833 376.518 408C376.518 428 380.351 442.833 388.018 452.5C395.684 462.167 405.851 467 418.518 467C431.184 467 441.684 461.417 450.018 450.25C458.351 438.917 462.518 423.25 462.518 403.25C462.518 383.083 458.684 368.167 451.018 358.5C443.351 348.833 433.184 344 420.518 344ZM673.867 303.5C658.701 297.667 644.367 294.75 630.867 294.75C617.534 294.75 607.117 297.583 599.617 303.25C592.117 308.917 588.367 316.75 588.367 326.75C588.367 338.917 594.701 348.333 607.367 355C613.034 357.833 619.201 360.5 625.867 363C632.701 365.333 639.534 368 646.367 371C653.201 374 659.451 377.417 665.117 381.25C670.784 385.083 675.367 390.417 678.867 397.25C682.367 403.917 684.117 412.5 684.117 423C684.117 433.333 681.201 442.167 675.367 449.5C669.534 456.833 662.451 461.833 654.117 464.5C645.951 467 636.367 468.25 625.367 468.25C604.867 468.25 587.367 463.167 572.867 453L574.117 451C579.617 455.333 586.701 458.917 595.367 461.75C604.201 464.417 613.201 465.75 622.367 465.75C635.867 465.75 647.367 462.667 656.867 456.5C666.534 450.167 671.367 440.917 671.367 428.75C671.367 415.417 665.034 405 652.367 397.5C646.701 394.167 640.451 391.083 633.617 388.25C626.951 385.417 620.201 382.5 613.367 379.5C606.534 376.333 600.284 372.833 594.617 369C581.951 360.667 575.617 348.833 575.617 333.5C575.617 321.333 579.701 311.5 587.867 304C596.034 296.333 608.284 292.5 624.617 292.5C641.117 292.5 657.867 295.333 674.867 301L673.867 303.5ZM762.029 469C744.529 469 730.279 464 719.279 454C708.279 444 702.779 428.583 702.779 407.75C702.779 386.917 708.446 370.75 719.779 359.25C731.279 347.75 745.779 342 763.279 342C780.946 342 795.279 347 806.279 357C817.279 367 822.779 382.417 822.779 403.25C822.779 424.083 817.029 440.25 805.529 451.75C794.196 463.25 779.696 469 762.029 469ZM763.779 344C751.113 344 740.613 349.667 732.279 361C723.946 372.167 719.779 387.833 719.779 408C719.779 428 723.613 442.833 731.279 452.5C738.946 462.167 749.113 467 761.779 467C774.446 467 784.946 461.417 793.279 450.25C801.613 438.917 805.779 423.25 805.779 403.25C805.779 383.083 801.946 368.167 794.279 358.5C786.613 348.833 776.446 344 763.779 344ZM874.422 468C859.755 468 850.505 464.167 846.672 456.5C845.839 454.833 845.422 453.333 845.422 452V280.75H862.922V450.25C862.922 455.083 863.839 458.833 865.672 461.5C867.672 464 869.672 465.333 871.672 465.5L874.422 466H882.172V468H874.422Z" fill="#EF9B1B"/>
<path d="M231.5 293.25V295.25H231.545L231.591 295.248L231.5 293.25ZM275.5 295L275.124 296.964L275.131 296.966L275.5 295ZM299 303.5L298.045 305.257L298.068 305.27L298.09 305.281L299 303.5ZM318.75 319.25L317.204 320.519L317.222 320.54L317.24 320.561L318.75 319.25ZM332 344.5L333.906 343.895V343.895L332 344.5ZM329.5 423.25L327.654 422.481L327.648 422.494L329.5 423.25ZM309.5 450.5L308.305 448.896L308.303 448.898L309.5 450.5ZM224 468L224.148 466.005L224.074 466H224V468ZM211.5 468H209.5V470H211.5V468ZM211.5 293.25V291.25H209.5V293.25H211.5ZM232.25 466H230.25V467.819L232.06 467.991L232.25 466ZM268.5 464.25L268.985 466.19L269.017 466.182L269.049 466.173L268.5 464.25ZM281.5 459L282.453 460.759L282.453 460.759L281.5 459ZM294 449.5L295.386 450.942L295.387 450.941L294 449.5ZM305.5 434.25L307.258 435.204L307.265 435.192L307.271 435.179L305.5 434.25ZM310.5 340.25L308.603 340.882L308.605 340.891L310.5 340.25ZM297.25 314.75L295.748 316.07L295.759 316.083L295.77 316.095L297.25 314.75ZM279.5 301.75L278.64 303.556L278.658 303.564L278.676 303.572L279.5 301.75ZM262.75 296L262.512 297.986V297.986L262.75 296ZM232.25 296L232.057 294.009L230.25 294.184V296H232.25ZM231.5 293.25L231.591 295.248C238.895 294.916 246.032 294.75 253 294.75V292.75V290.75C245.968 290.75 238.771 290.917 231.409 291.252L231.5 293.25ZM253 292.75V294.75C260.027 294.75 267.401 295.485 275.124 296.964L275.5 295L275.876 293.036C267.933 291.515 260.306 290.75 253 290.75V292.75ZM275.5 295L275.131 296.966C282.912 298.425 290.549 301.183 298.045 305.257L299 303.5L299.955 301.743C292.118 297.484 284.088 294.575 275.869 293.034L275.5 295ZM299 303.5L298.09 305.281C305.69 309.162 312.053 314.241 317.204 320.519L318.75 319.25L320.296 317.981C314.78 311.259 307.977 305.838 299.91 301.719L299 303.5ZM318.75 319.25L317.24 320.561C322.515 326.635 326.818 334.788 330.094 345.105L332 344.5L333.906 343.895C330.515 333.212 325.985 324.532 320.26 317.939L318.75 319.25ZM332 344.5L330.094 345.105C333.347 355.353 335 367.886 335 382.75H337H339C339 367.614 337.32 354.647 333.906 343.895L332 344.5ZM337 382.75H335C335 397.526 332.538 410.759 327.654 422.481L329.5 423.25L331.346 424.019C336.462 411.741 339 397.974 339 382.75H337ZM329.5 423.25L327.648 422.494C322.924 434.06 316.458 442.821 308.305 448.896L309.5 450.5L310.695 452.104C319.542 445.512 326.409 436.107 331.352 424.006L329.5 423.25ZM309.5 450.5L308.303 448.898C292.193 460.939 272.712 467 249.75 467V469V471C273.455 471 293.807 464.727 310.697 452.102L309.5 450.5ZM249.75 469V467C241.637 467 233.104 466.669 224.148 466.005L224 468L223.852 469.995C232.896 470.664 241.529 471 249.75 471V469ZM224 468V466H211.5V468V470H224V468ZM211.5 468H213.5V293.25H211.5H209.5V468H211.5ZM211.5 293.25V295.25H231.5V293.25V291.25H211.5V293.25ZM232.25 466L232.06 467.991C235.647 468.333 240.132 468.5 245.5 468.5V466.5V464.5C240.201 464.5 235.853 464.334 232.44 464.009L232.25 466ZM245.5 466.5V468.5C250.843 468.5 254.894 468.417 257.625 468.246L257.5 466.25L257.375 464.254C254.773 464.417 250.824 464.5 245.5 464.5V466.5ZM257.5 466.25L257.625 468.246C260.473 468.068 264.278 467.367 268.985 466.19L268.5 464.25L268.015 462.31C263.389 463.466 259.86 464.099 257.375 464.254L257.5 466.25ZM268.5 464.25L269.049 466.173C273.847 464.802 278.316 462.999 282.453 460.759L281.5 459L280.547 457.241C276.684 459.334 272.487 461.031 267.951 462.327L268.5 464.25ZM281.5 459L282.453 460.759C286.652 458.484 290.962 455.196 295.386 450.942L294 449.5L292.614 448.058C288.371 452.138 284.348 455.183 280.547 457.241L281.5 459ZM294 449.5L295.387 450.941C300.044 446.456 303.999 441.206 307.258 435.204L305.5 434.25L303.742 433.296C300.667 438.96 296.956 443.877 292.613 448.059L294 449.5ZM305.5 434.25L307.271 435.179C314.638 421.13 318.25 402.945 318.25 380.75H316.25H314.25C314.25 402.555 310.695 420.037 303.729 433.321L305.5 434.25ZM316.25 380.75H318.25C318.25 364.929 316.316 351.202 312.395 339.609L310.5 340.25L308.605 340.891C312.351 351.965 314.25 365.238 314.25 380.75H316.25ZM310.5 340.25L312.397 339.618C308.525 328 303.999 319.2 298.73 313.405L297.25 314.75L295.77 316.095C300.501 321.3 304.809 329.5 308.603 340.882L310.5 340.25ZM297.25 314.75L298.752 313.43C293.722 307.706 287.57 303.206 280.324 299.928L279.5 301.75L278.676 303.572C285.43 306.628 291.111 310.794 295.748 316.07L297.25 314.75ZM279.5 301.75L280.36 299.944C273.3 296.583 267.482 294.553 262.988 294.014L262.75 296L262.512 297.986C266.351 298.447 271.7 300.251 278.64 303.556L279.5 301.75ZM262.75 296L262.988 294.014C258.723 293.502 253.807 293.25 248.25 293.25V295.25V297.25C253.693 297.25 258.444 297.498 262.512 297.986L262.75 296ZM248.25 295.25V293.25C242.689 293.25 237.292 293.503 232.057 294.009L232.25 296L232.443 297.991C237.542 297.497 242.811 297.25 248.25 297.25V295.25ZM232.25 296H230.25V466H232.25H234.25V296H232.25ZM376.018 454L377.363 452.52V452.52L376.018 454ZM376.518 359.25L375.103 357.836L375.098 357.841L375.093 357.846L376.518 359.25ZM463.018 357L464.363 355.52V355.52L463.018 357ZM462.268 451.75L460.853 450.336L460.848 450.341L460.843 450.346L462.268 451.75ZM389.018 361L390.62 362.196L390.625 362.19L390.629 362.185L389.018 361ZM388.018 452.5L389.585 451.257V451.257L388.018 452.5ZM450.018 450.25L451.62 451.446L451.625 451.44L451.629 451.435L450.018 450.25ZM418.768 469V467C401.672 467 387.931 462.127 377.363 452.52L376.018 454L374.672 455.48C386.104 465.873 400.864 471 418.768 471V469ZM376.018 454L377.363 452.52C366.926 443.032 361.518 428.253 361.518 407.75H359.518H357.518C357.518 428.914 363.109 444.968 374.672 455.48L376.018 454ZM359.518 407.75H361.518C361.518 387.283 367.076 371.68 377.942 360.654L376.518 359.25L375.093 357.846C363.293 369.82 357.518 386.55 357.518 407.75H359.518ZM376.518 359.25L377.932 360.664C389.026 349.57 403.003 344 420.018 344V342V340C402.032 340 387.009 345.93 375.103 357.836L376.518 359.25ZM420.018 342V344C437.286 344 451.108 348.876 461.672 358.48L463.018 357L464.363 355.52C452.927 345.124 438.083 340 420.018 340V342ZM463.018 357L461.672 358.48C472.109 367.968 477.518 382.747 477.518 403.25H479.518H481.518C481.518 382.086 475.926 366.032 464.363 355.52L463.018 357ZM479.518 403.25H477.518C477.518 423.709 471.881 439.308 460.853 450.336L462.268 451.75L463.682 453.164C475.654 441.192 481.518 424.458 481.518 403.25H479.518ZM462.268 451.75L460.843 450.346C449.923 461.427 435.954 467 418.768 467V469V471C436.914 471 451.946 465.073 463.692 453.154L462.268 451.75ZM420.518 344V342C407.138 342 396.068 348.035 387.406 359.815L389.018 361L390.629 362.185C398.633 351.299 408.564 346 420.518 346V344ZM389.018 361L387.415 359.804C378.731 371.44 374.518 387.588 374.518 408H376.518H378.518C378.518 388.079 382.637 372.893 390.62 362.196L389.018 361ZM376.518 408H374.518C374.518 428.191 378.376 443.562 386.451 453.743L388.018 452.5L389.585 451.257C382.326 442.105 378.518 427.809 378.518 408H376.518ZM388.018 452.5L386.451 453.743C394.508 463.902 405.259 469 418.518 469V467V465C406.443 465 396.86 460.431 389.585 451.257L388.018 452.5ZM418.518 467V469C431.885 469 442.953 463.06 451.62 451.446L450.018 450.25L448.415 449.054C440.415 459.773 430.484 465 418.518 465V467ZM450.018 450.25L451.629 451.435C460.301 439.64 464.518 423.502 464.518 403.25H462.518H460.518C460.518 422.998 456.401 438.193 448.406 449.065L450.018 450.25ZM462.518 403.25H464.518C464.518 382.897 460.661 367.44 452.585 357.257L451.018 358.5L449.451 359.743C456.708 368.893 460.518 383.27 460.518 403.25H462.518ZM451.018 358.5L452.585 357.257C444.527 347.098 433.776 342 420.518 342V344V346C432.593 346 442.175 350.569 449.451 359.743L451.018 358.5ZM673.867 303.5L673.149 305.367L674.991 306.075L675.724 304.243L673.867 303.5ZM599.617 303.25L598.412 301.654V301.654L599.617 303.25ZM607.367 355L606.436 356.77L606.454 356.78L606.473 356.789L607.367 355ZM625.867 363L625.165 364.873L625.193 364.883L625.221 364.893L625.867 363ZM646.367 371L647.171 369.169V369.169L646.367 371ZM678.867 397.25L677.087 398.162L677.092 398.171L677.096 398.18L678.867 397.25ZM675.367 449.5L676.932 450.745V450.745L675.367 449.5ZM654.117 464.5L654.703 466.412L654.715 466.409L654.727 466.405L654.117 464.5ZM572.867 453L571.171 451.94L570.166 453.549L571.719 454.638L572.867 453ZM574.117 451L575.355 449.429L573.603 448.049L572.421 449.94L574.117 451ZM595.367 461.75L594.746 463.651L594.767 463.658L594.789 463.665L595.367 461.75ZM656.867 456.5L657.956 458.178L657.963 458.173L656.867 456.5ZM652.367 397.5L653.386 395.779L653.381 395.776L652.367 397.5ZM633.617 388.25L632.835 390.091L632.843 390.094L632.851 390.097L633.617 388.25ZM613.367 379.5L612.526 381.315L612.545 381.323L612.563 381.331L613.367 379.5ZM594.617 369L595.738 367.343L595.727 367.336L595.716 367.329L594.617 369ZM587.867 304L589.22 305.473L589.228 305.466L589.236 305.458L587.867 304ZM674.867 301L676.724 301.743L677.512 299.773L675.5 299.103L674.867 301ZM673.867 303.5L674.585 301.633C659.235 295.729 644.657 292.75 630.867 292.75V294.75V296.75C644.077 296.75 658.166 299.604 673.149 305.367L673.867 303.5ZM630.867 294.75V292.75C617.276 292.75 606.377 295.636 598.412 301.654L599.617 303.25L600.823 304.846C607.857 299.531 617.792 296.75 630.867 296.75V294.75ZM599.617 303.25L598.412 301.654C590.375 307.726 586.367 316.17 586.367 326.75H588.367H590.367C590.367 317.33 593.859 310.107 600.823 304.846L599.617 303.25ZM588.367 326.75H586.367C586.367 339.805 593.252 349.831 606.436 356.77L607.367 355L608.299 353.23C596.149 346.836 590.367 338.028 590.367 326.75H588.367ZM607.367 355L606.473 356.789C612.209 359.657 618.441 362.351 625.165 364.873L625.867 363L626.569 361.127C619.96 358.649 613.859 356.01 608.262 353.211L607.367 355ZM625.867 363L625.221 364.893C631.999 367.207 638.78 369.853 645.563 372.831L646.367 371L647.171 369.169C640.288 366.147 633.402 363.459 626.513 361.107L625.867 363ZM646.367 371L645.563 372.831C652.296 375.787 658.439 379.147 663.997 382.907L665.117 381.25L666.238 379.593C660.463 375.687 654.105 372.213 647.171 369.169L646.367 371ZM665.117 381.25L663.997 382.907C669.351 386.529 673.722 391.591 677.087 398.162L678.867 397.25L680.647 396.338C677.013 389.242 672.216 383.638 666.238 379.593L665.117 381.25ZM678.867 397.25L677.096 398.18C680.398 404.469 682.117 412.703 682.117 423H684.117H686.117C686.117 412.297 684.336 403.364 680.638 396.32L678.867 397.25ZM684.117 423H682.117C682.117 432.93 679.325 441.312 673.802 448.255L675.367 449.5L676.932 450.745C683.077 443.021 686.117 433.736 686.117 423H684.117ZM675.367 449.5L673.802 448.255C668.197 455.302 661.437 460.058 653.508 462.595L654.117 464.5L654.727 466.405C663.464 463.609 670.871 458.365 676.932 450.745L675.367 449.5ZM654.117 464.5L653.532 462.588C645.6 465.016 636.223 466.25 625.367 466.25V468.25V470.25C636.512 470.25 646.301 468.984 654.703 466.412L654.117 464.5ZM625.367 468.25V466.25C605.211 466.25 588.128 461.258 574.015 451.362L572.867 453L571.719 454.638C586.606 465.076 604.523 470.25 625.367 470.25V468.25ZM572.867 453L574.563 454.06L575.813 452.06L574.117 451L572.421 449.94L571.171 451.94L572.867 453ZM574.117 451L572.879 452.571C578.61 457.086 585.92 460.766 594.746 463.651L595.367 461.75L595.989 459.849C587.481 457.068 580.624 453.581 575.355 449.429L574.117 451ZM595.367 461.75L594.789 463.665C603.809 466.388 613.003 467.75 622.367 467.75V465.75V463.75C613.398 463.75 604.592 462.446 595.945 459.835L595.367 461.75ZM622.367 465.75V467.75C636.178 467.75 648.074 464.592 657.956 458.178L656.867 456.5L655.778 454.822C646.66 460.741 635.556 463.75 622.367 463.75V465.75ZM656.867 456.5L657.963 458.173C668.229 451.447 673.367 441.548 673.367 428.75H671.367H669.367C669.367 440.285 664.839 448.886 655.771 454.827L656.867 456.5ZM671.367 428.75H673.367C673.367 414.626 666.585 403.594 653.386 395.779L652.367 397.5L651.348 399.221C663.483 406.406 669.367 416.208 669.367 428.75H671.367ZM652.367 397.5L653.381 395.776C647.626 392.391 641.292 389.267 634.383 386.403L633.617 388.25L632.851 390.097C639.609 392.9 645.775 395.943 651.353 399.224L652.367 397.5ZM633.617 388.25L634.399 386.409C627.74 383.579 620.997 380.666 614.171 377.669L613.367 379.5L612.563 381.331C619.404 384.334 626.161 387.254 632.835 390.091L633.617 388.25ZM613.367 379.5L614.208 377.685C607.462 374.559 601.307 371.111 595.738 367.343L594.617 369L593.497 370.657C599.26 374.556 605.605 378.107 612.526 381.315L613.367 379.5ZM594.617 369L595.716 367.329C583.62 359.371 577.617 348.169 577.617 333.5H575.617H573.617C573.617 349.497 580.281 361.963 593.518 370.671L594.617 369ZM575.617 333.5H577.617C577.617 321.833 581.508 312.555 589.22 305.473L587.867 304L586.514 302.527C577.893 310.445 573.617 320.834 573.617 333.5H575.617ZM587.867 304L589.236 305.458C596.892 298.271 608.562 294.5 624.617 294.5V292.5V290.5C608.006 290.5 595.175 294.396 586.498 302.542L587.867 304ZM624.617 292.5V294.5C640.885 294.5 657.421 297.293 674.235 302.897L674.867 301L675.5 299.103C658.313 293.374 641.35 290.5 624.617 290.5V292.5ZM674.867 301L673.01 300.257L672.01 302.757L673.867 303.5L675.724 304.243L676.724 301.743L674.867 301ZM719.279 454L720.625 452.52V452.52L719.279 454ZM719.779 359.25L718.365 357.836L718.36 357.841L718.355 357.846L719.779 359.25ZM806.279 357L807.625 355.52V355.52L806.279 357ZM805.529 451.75L804.115 450.336L804.11 450.341L804.105 450.346L805.529 451.75ZM732.279 361L733.882 362.196L733.886 362.19L733.891 362.185L732.279 361ZM731.279 452.5L732.846 451.257V451.257L731.279 452.5ZM793.279 450.25L794.882 451.446L794.886 451.44L794.891 451.435L793.279 450.25ZM762.029 469V467C744.933 467 731.193 462.127 720.625 452.52L719.279 454L717.934 455.48C729.366 465.873 744.125 471 762.029 471V469ZM719.279 454L720.625 452.52C710.187 443.032 704.779 428.253 704.779 407.75H702.779H700.779C700.779 428.914 706.371 444.968 717.934 455.48L719.279 454ZM702.779 407.75H704.779C704.779 387.283 710.338 371.68 721.204 360.654L719.779 359.25L718.355 357.846C706.554 369.82 700.779 386.55 700.779 407.75H702.779ZM719.779 359.25L721.193 360.664C732.288 349.57 746.265 344 763.279 344V342V340C745.293 340 730.271 345.93 718.365 357.836L719.779 359.25ZM763.279 342V344C780.548 344 794.369 348.876 804.934 358.48L806.279 357L807.625 355.52C796.189 345.124 781.344 340 763.279 340V342ZM806.279 357L804.934 358.48C815.371 367.968 820.779 382.747 820.779 403.25H822.779H824.779C824.779 382.086 819.187 366.032 807.625 355.52L806.279 357ZM822.779 403.25H820.779C820.779 423.709 815.142 439.308 804.115 450.336L805.529 451.75L806.944 453.164C818.916 441.192 824.779 424.458 824.779 403.25H822.779ZM805.529 451.75L804.105 450.346C793.185 461.427 779.216 467 762.029 467V469V471C780.176 471 795.207 465.073 806.954 453.154L805.529 451.75ZM763.779 344V342C750.399 342 739.33 348.035 730.668 359.815L732.279 361L733.891 362.185C741.895 351.299 751.826 346 763.779 346V344ZM732.279 361L730.676 359.804C721.993 371.44 717.779 387.588 717.779 408H719.779H721.779C721.779 388.079 725.899 372.893 733.882 362.196L732.279 361ZM719.779 408H717.779C717.779 428.191 721.638 443.562 729.712 453.743L731.279 452.5L732.846 451.257C725.587 442.105 721.779 427.809 721.779 408H719.779ZM731.279 452.5L729.712 453.743C737.77 463.902 748.521 469 761.779 469V467V465C749.704 465 740.122 460.431 732.846 451.257L731.279 452.5ZM761.779 467V469C775.147 469 786.215 463.06 794.882 451.446L793.279 450.25L791.676 449.054C783.677 459.773 773.745 465 761.779 465V467ZM793.279 450.25L794.891 451.435C803.563 439.64 807.779 423.502 807.779 403.25H805.779H803.779C803.779 422.998 799.662 438.193 791.668 449.065L793.279 450.25ZM805.779 403.25H807.779C807.779 382.897 803.922 367.44 795.846 357.257L794.279 358.5L792.712 359.743C799.969 368.893 803.779 383.27 803.779 403.25H805.779ZM794.279 358.5L795.846 357.257C787.789 347.098 777.038 342 763.779 342V344V346C775.854 346 785.437 350.569 792.712 359.743L794.279 358.5ZM846.672 456.5L844.883 457.394L846.672 456.5ZM845.422 280.75V278.75H843.422V280.75H845.422ZM862.922 280.75H864.922V278.75H862.922V280.75ZM865.672 461.5L864.024 462.633L864.065 462.693L864.11 462.749L865.672 461.5ZM871.672 465.5L872.03 463.532L871.934 463.515L871.838 463.507L871.672 465.5ZM874.422 466L874.064 467.968L874.242 468H874.422V466ZM882.172 466H884.172V464H882.172V466ZM882.172 468V470H884.172V468H882.172ZM874.422 468V466C859.946 466 851.76 462.204 848.461 455.606L846.672 456.5L844.883 457.394C849.25 466.129 859.565 470 874.422 470V468ZM846.672 456.5L848.461 455.606C847.714 454.113 847.422 452.925 847.422 452H845.422H843.422C843.422 453.742 843.963 455.554 844.883 457.394L846.672 456.5ZM845.422 452H847.422V280.75H845.422H843.422V452H845.422ZM845.422 280.75V282.75H862.922V280.75V278.75H845.422V280.75ZM862.922 280.75H860.922V450.25H862.922H864.922V280.75H862.922ZM862.922 450.25H860.922C860.922 455.3 861.874 459.506 864.024 462.633L865.672 461.5L867.32 460.367C865.803 458.161 864.922 454.867 864.922 450.25H862.922ZM865.672 461.5L864.11 462.749C866.255 465.43 868.706 467.26 871.506 467.493L871.672 465.5L871.838 463.507C870.637 463.407 869.089 462.57 867.234 460.251L865.672 461.5ZM871.672 465.5L871.314 467.468L874.064 467.968L874.422 466L874.78 464.032L872.03 463.532L871.672 465.5ZM874.422 466V468H882.172V466V464H874.422V466ZM882.172 466H880.172V468H882.172H884.172V466H882.172ZM882.172 468V466H874.422V468V470H882.172V468Z" fill="#EF9B1B" mask="url(#path-4-outside-2_547_56)"/>
<path d="M327.1 162.567C287.059 162.567 254.6 195.026 254.6 235.067C254.6 246.132 257.078 256.618 261.511 266H359V169.944C349.373 165.22 338.546 162.567 327.1 162.567Z" stroke="#EF9B1B" stroke-width="10"/>
<path d="M359 121V266H214" stroke="#EF9B1B" stroke-width="10" stroke-linecap="round"/>
<path d="M333.866 121V139.367" stroke="#EF9B1B" stroke-width="10" stroke-linecap="round"/>
<path d="M296.24 126.776L301.856 144.263" stroke="#EF9B1B" stroke-width="10" stroke-linecap="round"/>
<path d="M262.229 144.274L273.048 159.117" stroke="#EF9B1B" stroke-width="10" stroke-linecap="round"/>
<path d="M235.32 171.192L250.141 182.04" stroke="#EF9B1B" stroke-width="10" stroke-linecap="round"/>
<path d="M217.881 205.055L235.346 210.738" stroke="#EF9B1B" stroke-width="10" stroke-linecap="round"/>
<path d="M214 242.8H232.367" stroke="#EF9B1B" stroke-width="10" stroke-linecap="round"/>
</svg>
